<mxfile host="app.diagrams.net" modified="2021-08-30T17:10:45.047Z" agent="5.0 (Windows NT 10.0; Win64; x64) AppleWebKit/537.36 (KHTML, like Gecko) Chrome/92.0.4515.159 Safari/537.36" etag="sRcI_KPL1tkx2RjWt5hx" version="15.0.2" type="github">
  <diagram id="Y09LI1UkrArvn9deVJge" name="Page-1">
    <mxGraphModel dx="1422" dy="1931" grid="1" gridSize="10" guides="1" tooltips="1" connect="1" arrows="1" fold="1" page="1" pageScale="1" pageWidth="827" pageHeight="1169" math="0" shadow="0">
      <root>
        <mxCell id="0" />
        <mxCell id="1" parent="0" />
        <mxCell id="QWoh_sHVwy2fCmXLBA7B-5" value="Person Class" style="swimlane;fontStyle=0;childLayout=stackLayout;horizontal=1;startSize=26;horizontalStack=0;resizeParent=1;resizeParentMax=0;resizeLast=0;collapsible=1;marginBottom=0;" vertex="1" parent="1">
          <mxGeometry x="260" y="90" width="140" height="338" as="geometry" />
        </mxCell>
        <mxCell id="QWoh_sHVwy2fCmXLBA7B-6" value="String name;" style="text;strokeColor=none;fillColor=none;align=left;verticalAlign=top;spacingLeft=4;spacingRight=4;overflow=hidden;rotatable=0;points=[[0,0.5],[1,0.5]];portConstraint=eastwest;" vertex="1" parent="QWoh_sHVwy2fCmXLBA7B-5">
          <mxGeometry y="26" width="140" height="26" as="geometry" />
        </mxCell>
        <mxCell id="QWoh_sHVwy2fCmXLBA7B-7" value="String surname;" style="text;strokeColor=none;fillColor=none;align=left;verticalAlign=top;spacingLeft=4;spacingRight=4;overflow=hidden;rotatable=0;points=[[0,0.5],[1,0.5]];portConstraint=eastwest;" vertex="1" parent="QWoh_sHVwy2fCmXLBA7B-5">
          <mxGeometry y="52" width="140" height="26" as="geometry" />
        </mxCell>
        <mxCell id="QWoh_sHVwy2fCmXLBA7B-23" value="String gender;" style="text;strokeColor=none;fillColor=none;align=left;verticalAlign=top;spacingLeft=4;spacingRight=4;overflow=hidden;rotatable=0;points=[[0,0.5],[1,0.5]];portConstraint=eastwest;" vertex="1" parent="QWoh_sHVwy2fCmXLBA7B-5">
          <mxGeometry y="78" width="140" height="26" as="geometry" />
        </mxCell>
        <mxCell id="QWoh_sHVwy2fCmXLBA7B-8" value="Date birthDate;&#xa;" style="text;strokeColor=none;fillColor=none;align=left;verticalAlign=top;spacingLeft=4;spacingRight=4;overflow=hidden;rotatable=0;points=[[0,0.5],[1,0.5]];portConstraint=eastwest;" vertex="1" parent="QWoh_sHVwy2fCmXLBA7B-5">
          <mxGeometry y="104" width="140" height="26" as="geometry" />
        </mxCell>
        <mxCell id="QWoh_sHVwy2fCmXLBA7B-9" value="Date deathDate;" style="text;strokeColor=none;fillColor=none;align=left;verticalAlign=top;spacingLeft=4;spacingRight=4;overflow=hidden;rotatable=0;points=[[0,0.5],[1,0.5]];portConstraint=eastwest;" vertex="1" parent="QWoh_sHVwy2fCmXLBA7B-5">
          <mxGeometry y="130" width="140" height="26" as="geometry" />
        </mxCell>
        <mxCell id="QWoh_sHVwy2fCmXLBA7B-10" value="String placeOfBirth;" style="text;strokeColor=none;fillColor=none;align=left;verticalAlign=top;spacingLeft=4;spacingRight=4;overflow=hidden;rotatable=0;points=[[0,0.5],[1,0.5]];portConstraint=eastwest;" vertex="1" parent="QWoh_sHVwy2fCmXLBA7B-5">
          <mxGeometry y="156" width="140" height="26" as="geometry" />
        </mxCell>
        <mxCell id="QWoh_sHVwy2fCmXLBA7B-11" value="Int age;" style="text;strokeColor=none;fillColor=none;align=left;verticalAlign=top;spacingLeft=4;spacingRight=4;overflow=hidden;rotatable=0;points=[[0,0.5],[1,0.5]];portConstraint=eastwest;" vertex="1" parent="QWoh_sHVwy2fCmXLBA7B-5">
          <mxGeometry y="182" width="140" height="26" as="geometry" />
        </mxCell>
        <mxCell id="QWoh_sHVwy2fCmXLBA7B-22" value="List Item" style="text;strokeColor=none;fillColor=none;align=left;verticalAlign=top;spacingLeft=4;spacingRight=4;overflow=hidden;rotatable=0;points=[[0,0.5],[1,0.5]];portConstraint=eastwest;" vertex="1" parent="QWoh_sHVwy2fCmXLBA7B-5">
          <mxGeometry y="208" width="140" height="26" as="geometry" />
        </mxCell>
        <mxCell id="QWoh_sHVwy2fCmXLBA7B-13" value="----------------------" style="text;strokeColor=none;fillColor=none;align=left;verticalAlign=top;spacingLeft=4;spacingRight=4;overflow=hidden;rotatable=0;points=[[0,0.5],[1,0.5]];portConstraint=eastwest;" vertex="1" parent="QWoh_sHVwy2fCmXLBA7B-5">
          <mxGeometry y="234" width="140" height="26" as="geometry" />
        </mxCell>
        <mxCell id="QWoh_sHVwy2fCmXLBA7B-25" value="List Item" style="text;strokeColor=none;fillColor=none;align=left;verticalAlign=top;spacingLeft=4;spacingRight=4;overflow=hidden;rotatable=0;points=[[0,0.5],[1,0.5]];portConstraint=eastwest;" vertex="1" parent="QWoh_sHVwy2fCmXLBA7B-5">
          <mxGeometry y="260" width="140" height="26" as="geometry" />
        </mxCell>
        <mxCell id="QWoh_sHVwy2fCmXLBA7B-24" value="List Item" style="text;strokeColor=none;fillColor=none;align=left;verticalAlign=top;spacingLeft=4;spacingRight=4;overflow=hidden;rotatable=0;points=[[0,0.5],[1,0.5]];portConstraint=eastwest;" vertex="1" parent="QWoh_sHVwy2fCmXLBA7B-5">
          <mxGeometry y="286" width="140" height="26" as="geometry" />
        </mxCell>
        <mxCell id="QWoh_sHVwy2fCmXLBA7B-26" value="List Item" style="text;strokeColor=none;fillColor=none;align=left;verticalAlign=top;spacingLeft=4;spacingRight=4;overflow=hidden;rotatable=0;points=[[0,0.5],[1,0.5]];portConstraint=eastwest;" vertex="1" parent="QWoh_sHVwy2fCmXLBA7B-5">
          <mxGeometry y="312" width="140" height="26" as="geometry" />
        </mxCell>
        <mxCell id="QWoh_sHVwy2fCmXLBA7B-14" value="Main Class" style="swimlane;fontStyle=0;childLayout=stackLayout;horizontal=1;startSize=26;horizontalStack=0;resizeParent=1;resizeParentMax=0;resizeLast=0;collapsible=1;marginBottom=0;" vertex="1" parent="1">
          <mxGeometry x="70" y="90" width="140" height="104" as="geometry" />
        </mxCell>
        <mxCell id="QWoh_sHVwy2fCmXLBA7B-15" value="Runs Scanner" style="text;strokeColor=none;fillColor=none;align=left;verticalAlign=top;spacingLeft=4;spacingRight=4;overflow=hidden;rotatable=0;points=[[0,0.5],[1,0.5]];portConstraint=eastwest;" vertex="1" parent="QWoh_sHVwy2fCmXLBA7B-14">
          <mxGeometry y="26" width="140" height="26" as="geometry" />
        </mxCell>
        <mxCell id="QWoh_sHVwy2fCmXLBA7B-16" value="Has a MenuÂ " style="text;strokeColor=none;fillColor=none;align=left;verticalAlign=top;spacingLeft=4;spacingRight=4;overflow=hidden;rotatable=0;points=[[0,0.5],[1,0.5]];portConstraint=eastwest;" vertex="1" parent="QWoh_sHVwy2fCmXLBA7B-14">
          <mxGeometry y="52" width="140" height="26" as="geometry" />
        </mxCell>
        <mxCell id="QWoh_sHVwy2fCmXLBA7B-17" value="Item 3" style="text;strokeColor=none;fillColor=none;align=left;verticalAlign=top;spacingLeft=4;spacingRight=4;overflow=hidden;rotatable=0;points=[[0,0.5],[1,0.5]];portConstraint=eastwest;" vertex="1" parent="QWoh_sHVwy2fCmXLBA7B-14">
          <mxGeometry y="78" width="140" height="26" as="geometry" />
        </mxCell>
        <mxCell id="QWoh_sHVwy2fCmXLBA7B-18" value="Graph Class" style="swimlane;fontStyle=0;childLayout=stackLayout;horizontal=1;startSize=26;horizontalStack=0;resizeParent=1;resizeParentMax=0;resizeLast=0;collapsible=1;marginBottom=0;" vertex="1" parent="1">
          <mxGeometry x="450" y="90" width="140" height="104" as="geometry" />
        </mxCell>
        <mxCell id="QWoh_sHVwy2fCmXLBA7B-19" value="Graph constructor" style="text;strokeColor=none;fillColor=none;align=left;verticalAlign=top;spacingLeft=4;spacingRight=4;overflow=hidden;rotatable=0;points=[[0,0.5],[1,0.5]];portConstraint=eastwest;" vertex="1" parent="QWoh_sHVwy2fCmXLBA7B-18">
          <mxGeometry y="26" width="140" height="26" as="geometry" />
        </mxCell>
        <mxCell id="QWoh_sHVwy2fCmXLBA7B-20" value="Setters and getters" style="text;strokeColor=none;fillColor=none;align=left;verticalAlign=top;spacingLeft=4;spacingRight=4;overflow=hidden;rotatable=0;points=[[0,0.5],[1,0.5]];portConstraint=eastwest;" vertex="1" parent="QWoh_sHVwy2fCmXLBA7B-18">
          <mxGeometry y="52" width="140" height="26" as="geometry" />
        </mxCell>
        <mxCell id="QWoh_sHVwy2fCmXLBA7B-21" value="Item 3" style="text;strokeColor=none;fillColor=none;align=left;verticalAlign=top;spacingLeft=4;spacingRight=4;overflow=hidden;rotatable=0;points=[[0,0.5],[1,0.5]];portConstraint=eastwest;" vertex="1" parent="QWoh_sHVwy2fCmXLBA7B-18">
          <mxGeometry y="78" width="140" height="26" as="geometry" />
        </mxCell>
        <mxCell id="QWoh_sHVwy2fCmXLBA7B-27" value="Database Class" style="swimlane;fontStyle=0;childLayout=stackLayout;horizontal=1;startSize=26;horizontalStack=0;resizeParent=1;resizeParentMax=0;resizeLast=0;collapsible=1;marginBottom=0;" vertex="1" parent="1">
          <mxGeometry x="650" y="90" width="140" height="104" as="geometry" />
        </mxCell>
        <mxCell id="QWoh_sHVwy2fCmXLBA7B-28" value="Database connection" style="text;strokeColor=none;fillColor=none;align=left;verticalAlign=top;spacingLeft=4;spacingRight=4;overflow=hidden;rotatable=0;points=[[0,0.5],[1,0.5]];portConstraint=eastwest;" vertex="1" parent="QWoh_sHVwy2fCmXLBA7B-27">
          <mxGeometry y="26" width="140" height="26" as="geometry" />
        </mxCell>
        <mxCell id="QWoh_sHVwy2fCmXLBA7B-29" value="Item 2" style="text;strokeColor=none;fillColor=none;align=left;verticalAlign=top;spacingLeft=4;spacingRight=4;overflow=hidden;rotatable=0;points=[[0,0.5],[1,0.5]];portConstraint=eastwest;" vertex="1" parent="QWoh_sHVwy2fCmXLBA7B-27">
          <mxGeometry y="52" width="140" height="26" as="geometry" />
        </mxCell>
        <mxCell id="QWoh_sHVwy2fCmXLBA7B-30" value="Item 3" style="text;strokeColor=none;fillColor=none;align=left;verticalAlign=top;spacingLeft=4;spacingRight=4;overflow=hidden;rotatable=0;points=[[0,0.5],[1,0.5]];portConstraint=eastwest;" vertex="1" parent="QWoh_sHVwy2fCmXLBA7B-27">
          <mxGeometry y="78" width="140" height="26" as="geometry" />
        </mxCell>
        <mxCell id="QWoh_sHVwy2fCmXLBA7B-33" value="" style="shape=image;imageAspect=0;aspect=fixed;verticalLabelPosition=bottom;verticalAlign=top;image=data:image/png,iVBORw0KGgoAAAANSUhEUgAABXYAAAJQCAYAAAAqmjxRAAAAAXNSR0IArs4c6QAAAARnQU1BAACxjwv8YQUAAAAJcEhZcwAAEnQAABJ0Ad5mH3gAAOkASURBVHhe7N0HnBT1/f/xz0WlmEj3QJoNG0FEVBRQAUmI8MMoghgFS6JGivrHWFAsiAWs0SgIikYQMBFBVAgqCXKoSGyISLBSpItUCyVq+N/7e/Nd5oa92+vc7L2ePOaxO3Vn2dmdm/d85zMZO7MZAAAAAAAAACA2fhY8AgAAAAAAAABigmAXAAAAAAAAAGKGYBcAAAAAAAAAYoZgFwAAAAAAAABihmAXAAAAAAAAAGKGYBcAAAAAAAAAYoZgFwAAAAAAAABihmAXAAAAAAAAAGKGYBcAAAAAAAAAYoZgFwAAAAAAAABihmAXAAAAAAAAAGKGYBcAAAAAAAAAYoZgFwAAAAAAAABihmAXAAAAAAAAAGKGYBcAAAAAAAAAYoZgFwAAAAAAAABihmAXAAAAAAAAAGKGYBcAAAAAAAAAYoZgFwAAAAAAAABihmAXAAAAAAAAAGKGYBcAAAAAAAAAYoZgFwAAAAAAAABihmAXAAAAAAAAAGKGYBcAAAAAAAAAYiZjZ7bgOQAAKILVG5fa8g2f2/L1n9mXX39u675ZGYwBABRGvRqN7cA6h1uj2ofZgfsf7voBAACQHMEuAABFNG/p6zZx7nDb8O1XwRAAQEnKrNbAera5wo45sE0wBAAAAB7BLgAAhfTfH7fbxLkjbPail1x/nf0OsMZ1DsvuDnctzBrWOtQNBwAU3M7sfyvWf2Ffrv8s+/FzdyXEhm/XunHtf3mW9Typv+2zdyXXDwAAAIJdAAAKZcGXc+1vc/5i679d4/p7nNTHfnPMee45AKBkTZ833qa8O9o9379afTu/7QBr1vhE1w8AAFDRFSnYnZL1afAM5VW39kcEz+KNba38S5dtLYztrvw745TDbO+9yv7+n1t3fGeDn7vINn+/3o5s0NJ6tu5vjWo3CcYCAEqD6pc/+9YI+2zNfKv58/1tSM+xVrXSz4OxAAAAFVeRgt1Rz39gG7/OaamE8mfau+vtrScuDPribfSL823F11uDPpQ3r8z5zN556uKgL338deqHtuyr74M+lDf/+vcX9vpjvfdIsDsm626b8+nL1qzRifb/utwbDAUAlIWHpl9n/1nxjrU5orP9vv0NwVAAAICKq8jBbqUf1tnFHeoFQ1Be/PjTTmt/y4K0Cna/2/E/O6/zMcEQlCe/vWpc2ga7G7//yXr/H9tdeXT21RP2SLD77uKZ9vi/breMjJ/ZkJ5j7IAaBwZjAABlYc2mL+225y62/+38n1162s124mG/DsYAAABUTGXf3AkAgJj53/9+cpcBy7mt+xPqAsAecEDNA+3cNle6539/6xH74acd7jkAAEBFRbALAEAKS7/+2LZs3WCN6xxmHY/uEQwFAJS105qdbQdnHmXfbd9ii79aFAwFAAComCjFkGYoxYCyRCkG7Al7ohTDawuft7/N+Yu1PaKLXdx+YDA0/rhR4J6TjjeeTAd8J/acwnwnJrz5oGX95wU7p3U/69T83GAogILity6++PsBQBTBbpoh2EVZItjFnrAngl1/07TzTx5gHX7ZLRgaf20ufdp+dVKToA9lpX6tqtbn7GODPpQnp14+3tqfcEjQh7KSWb2yXXHOcUFfam9+8g8bO/tea9Wko13W8dZgKICC0v6/6wl1gj7ERa39D+DvBwC7IdhNMwS7KEsEu9gT9kSwe/vkS2zF+i/shrMetUPr/jIYGn86sJt4/3llfiO6imziqwusUvZ/Nwdm5ZOC3XHDzrHK++wdDEFpm/yvhbbzxx8LFeyu2PCF3T7pEqtbvZHd+bvxwVAABaX9f9YdzbP3/xnBEJR3T7221n6olMnfDwB2w5EcAAAprN64zD0eWOdw9wgA2HMa1W5ie/1sb/tqywr76X8/BkMBAAAqHoJdAAAKKCODli0AAAAAgPKBYBcAAAAAAAAAYoZgFwAAAAAAAABihmAXAAAAAAAAAGKGYBcAAAAAAAAAYoZgFwAAAAAAAABihmAXAAAAAAAAAGKGYBcAAAAAAAAAYoZgFwAAAAAAAABihmAXAAAAAAAAAGKGYBcAAAAAAAAAYoZgFwAAAAAAAABihmAXAAAAAAAAAGKGYBcAAAAAAAAAYoZgFwAAAAAAAABihmAXAAAAAAAAAGKGYBcAABTIju3b7a7BN1rLIxol7T6c914wZen5culi+92ZnXK97stTpwRjc6hf66n11fT9/tDLPQLF4be96Ha+ZfMm639Jbxs94qFgSA7/fYlun1F+/vByP/t4kZu/pGgdwt+ZaKfXjq6H3k/0PQGATJk+y2648xHbvuO/wZDcHnr8GddJeNrFy1ba+X1vco+btnxrvfrdbO/OX+SmK2l++Xr9vGhcp5793PoURWm/BwAoCIJdAABQKHfd/7DN+3RFru6pv02x35/XrVTDXYVT3U5vbzcOHpp43bkffm7z3nsnEeRGHXjwofboXye4R6A46h3QwI5ucZytXrUiGJJj2ZLFtnPnTluy+HMXjnpr16yyVSuWW9NmzYMhBaPt/Lm/jwv6Sk733/XO+b6Evre+O6bl8cFUu1zWf4DrAKCwBvzxfNflp2b1/WzCo3faCS2aBkNKx4ysfycNXhXmalyd2jWDIYVXVu8BAPJDsAsAAIpNwVDfq66xd+a+GQwpWWotOXXKJJvySlauEKpylSp27Y2D3fOnnxzlHoHSoG0tM7OurVz+ZTAkh7b5nr0usm+2bHEhr7d50ybLyMiwGjVrBUMAAGXt5BNb2PyFnwZ9uyxY9LkbBwBxR7ALAACKTa1l1637KujLES2b4C/r9peoRy/zzu/S7xnTp9qxx52QtOWtAreuZ3a3+cHl5GHhUgzJlh8e7/uTrbOoJeVf7huaKEeR6hJ7pJ9WrU/OtZ3pUS11Dz7kUGvR8vhcrXkV+GpY9Ro1XUt2v035Ltn2o2E3XXuVTf77eLvo3N8mtsvo/OF5tY1OGDPalVHQuJJqNR/9vuh5eB30PfHrJ1qn8Hi+H0DFFS7FkJdoGQOValDJhoYtOic6jdd04ks6TJj8ctLxeWncoJ6tW78xV7kFzfP2vIV2+KEHBkNyaBqVZgivg38fmqffwLsTr6/XXrpi9W6lGPQ8PH9+pSAAoCTs0WA3+qMX7vKr2ZOX/3y6JDFPQXYmYfmti99hhOsDYc/SwUJel93qgEYHN9GD+4LSfNFadyVB66qaean4wEMHRQVdh/CyS2v9UTzRA95wFz5wTgdsgxXTJ4sW2kfz37dOXc5w/fr8w2UTZr29wAVi2t4VxLY8vtVuAZn6FZxF6TdOoXHDxrkPwMIOOiQn8A23mIzSsmfOmJ4rjFq0cIE1aNTYXWavdR44oK/d89BIt866bF2vG/6Ojn1ipAuRNb7zGd2CoagoatSs6coubN600fVre/vFftXc9qPtU2VBtL2Gt1ltb48Nf9C1NvelD1TORNtSeFsUbVMap7IJY599yZ3I0P7j8extUN8h/12a9sLkXMHp1CnP2fU3D3Hjk5VVKC69lt6PL+WgR5WlGD/mCfde9d3ROvl11HtVC/vo+wOAvIwaO8nqZda2lfNfdt1Hsye64WOfneoeZfyk6bZv1Spu/Bdvv2iN6tfNNT6ZKlUqW9PDD3EtdL0vlq5wr1WrRrVgSE5we+u9o+yuQVck1mHKmAfs/kfHJYLbLd9+Zx99/IV7bZVgqFFtPzfcU16gDELr7t/DpGkzCXcBlKo93mK3XZvjEj98vtMPpdx232MFDlH1YznuuX8EfUWTbF3U6Udb9XOAotJBz/3DhtjiL3a/DCjK1+Q7qe2pNu3FyW7e/BRm2dizktU3DIddQFyoRWH0BMWwIYNcIOpb1Kq1okoz+JBJrRb/2H9AIsxV3dEN69clglj/6APaZOo3aBQ8K5ojmzZzYZTCXNHvp4I4hcwKm7XOF13aN/EeNKz3xZfaB++/mwioWp/cLt91RHpTgKsTASqzIGqh67cfbdPaf2s/Hq6vq+0pWudZw2vV3j/oy5vfRvXd0XdI/HdJQao/MaLtWuuWH7UCbn3MYbt9d/M6UR6mwPmmIcPc+xR/csaL1h1O9p4BID/Rurw6/o7WrtXxevu2OX9XVKlcyU5s2czWrtuQMjNo3vQwW/TZrkZgc96Zb21b5S7DkKxebpODG7nXDNNr6rWjtGy1AtZ78NmBHtU/adrMlC2LAaCoymUpBv1QXta7my1ftdZWrVkXDAUqBt967MJL+7jWbzo4RPqKhl1AHIRvnqabpola5voQRyFRsha2CkSrVa/uWjv6G1H5mrzhy9bzEg2PCsuHUb5VZTh88+scDa3V6njjhq+DJZjVb9jIqlSpGvShovHbkLZXbTOfffKx234kHPqq8y3BPf3G+3IJ0e0qL9u3b7PVK1e4GxOGt0v1h2Vm1k2ErnnJ6+Zp4cA2FbXM9eug74rX5pT27rHDic3duHBrYgAoDDXY8lfOqrVsmFroVq1SOegruAYHZLpHZQsKWBUGK7RNRgGtLwlxdLueNvut94MxORpmr0My27bvsBWrv7JuF1+TWH916geA0lRua+xu3PyNrd+QE3LoxzdauyY8TD/+Vw66112a8dsLBiTq53y/dVuuOj2FKc1QEOEffXW+ZIPoMVqDR8OSlXzg0ozSpQMvX9pAXbhMgx5v/FN/e/7ZCYlx32zZ7MYt/vzTXHUWo5eVh2vNRevMaVy43t2N11zhWsroICi/ljFaH7XA0UHjUU2bWe06mYmWZRJd376/P9+G3jYo97J37HDT5rX+/sAy/H6iw6LrH33vKFnRsErbUvizU+db9Ooxug3pANoP889VBzQ8r/+M/bDwZ5rfd0TrovqjWTNn5Pl9iC572guTgjGoCNQiV0GvgqZUvxUKdLdszvmNVZDk6+IuX7YkzzIMomkVXEVvWhVWkBa/Em5Vqd9XX7fXB2jh0Np3f39xBi0PkaCW4zoJ8OXSJW478jdH89upQl/9rvuw1f+mK/TselZOGQ+VKihIi119Z9SyXSdQotvliCfH53sipCRp36Lfd7XM9yUl9F3xtB5aHz/cnyAh4AVQUDpW17HxpGkzE1fRXtvvgmBs8ajhmC/H4MswRK/I9flCkxPPTJSE0HpEW+zmZeOmLfb1+o2ufIPmDXdcAQygNJXLYFeB6eTsH/QuvzrZDj2oYTA0b926dLBHhl5vvXt0sZfGPZSYZ+SYSda9a8fEj7IPgUuCfvgvufr2XHWAdNnGFTfekwh3ozV49GP/4GMTbPYLoxPzaL1HjnkuVzF3lBwFTn/qf2lOC63gQEgHVYOuuTIRXOku1h8vWuhaseigpFr1Gm74zBkv22Njn3Xz6IBKBzM6OPMhmPhlqqWa6jKGw91wvbthDwx3LWXcwU4+LWMUTOgATsGDDpLcAWDQsswLr+/Ip56xQbcNzb3syjlnsfNa/4Iq7Xp9yKHtUGG+Pmt95uq/987Bibqk/vMb+fADLjRT8BVuya1tI3wpuSjoP/zIo9y8OgBXTVFt80MfeMQN07aieo16Lf8dycysm3g9tZoMf0fUqmzO67Ncvcfo/Hr94Q/e6+bROG2Xy5YusblvznbzomI47ded3e+Q3y7yCmLVijEjIyMRhPkWvO+9PTfRnxfV7g2XRAjTdqjSNala/IpvVfnm7Nfcd8+HyWqFq9a4+YXHgGg7/e7bb2zhgg/skEMPy7XNaXvSzdRen/WvxLalEwhqna7fR1+XWd+FgrTY1XdFJ3mL21q9OPx+Rr/94ZMceX1X9B79viL6NwwAJOMbQCkU9SGoMgG1rC0pvhzDjKy5u5VhEAW+otzAl4TwYW1B1KpZ3favU8tWrs59I1kAKG17PNjVpQ26xCHcgtWfJQvX2CkKBb1HH9XEPdfOQcHrlyvXuP5kkq2L7oqZLHT1P/wXnZtzkxjxz/04CdfgUeD8zMi7coXV2sHUqV02rS3STV614sKXJyoo1YG6QgdPzzXsrTeygiGWKxTzwvXsFGx27NTF3ZVdgZoO6Hr2usiNk/B4ryD17qLUykfL8QdNCngV4ummRGHJ1jfKB4Wig1AdGPqagAVRlPVH/pJts74Flz/Y12emEwzhMF2fn+p6+ufhltzhS8k9Tesvi9VnqM8yvD2E65T6Vo7h7dk/9+NELSv9NqfX8jcP0rapVo5+Hk2jmqQKllFx+M9dJ6b8b6tCLX9CQhT4KvgNh696VDB25603pAxl9bt4Rrce7hL2aItz1RmXCy/p4x7zo3XV9vzAsNtdvw+T/fDwOotaHIZbsQM6CaAbpmm79eGtp5urLV38uev03NPvpFqFi05O6GRrXvQb7afXd0K/39EbrSW7eqO0hYNcfS/0XfGi3xMfBhfk7xUA8MKhqG6mpityS4qC10WfLXVdXmUYFOIqzBWFzbqZmqYvCOUNPbp23K3RlloicwN2AKVpjwe74RuWqWWrwlh1fS7qEUxRdAqHkxU2z0uym6fNmPho0lbD2ulEa/z48Di8Q0pWg8df5qHguN1ZlyVKTqBw8qoV5+s9ilq4RMM0PdewsOgNedSCLHxAJqoVqUsv1331lb36j5cSdeR8Fz7AEbVWK8zBjA6Gopci+1DO16D0CnIDoYJMk5/Crj9SC2+zummaAljdXMqHumE6KPblEbSt+RawOsh3rWODVlC+JnM4hC9MDVB9R6LT+9fwLcR0uXD0++Alm9+3MEPFouBVJ6Z0CbaCUZ2cUItxBVh+O9Z2dVn/AcEcOfxvXjQgS0bfFX13FBD73173+358q0LVCfUnS6JhstZZ+5BwPVO16lVr9/xCZ1Qs2s60zSW7kZ7fb4dPjmq71bbm/27QFT66KiNabsnzy9T0+i5pft3UTyc1/Hapv0euvXFwofbTeZ0QV5dfyQS9xhVXX+/+RvHTax/06FPPJK4gib5HvY7+jki2fwOQHhS6qkFWQRpFpaLj6Nuv7+NCUb8s0dWtasnrr4gtDn+srk7PozS878XnuONzvb4afPW5sLvLJnSztYLQlcThZahTq+Pbrru8ULkEABTGHg92w/RjN/DKi13R8dvueyx2Z7VSXS6inZx2dtpJ6GyegmOVZaDFbulR65K8AuCiHmysWbXSHcwpXIguMxpYFIZauSm8CwcKPoTmxlrpRyGRSl2oTIKvnyv6nNXqyR8Ua7vyIbCnS9LVSlf1HUujRZQCY4UGQJS2MwWoef1+6jdQ26xvca6wV5dup/qNTBaQ5UXfHV/L03fR9VG/D3q1DtG78/tlJFsfrXt42ZrOh7rh5aJi07YQ3jY8/x2Jbif+u6FO3wltZ5pfy/Hbo//ehLdxP0zT+fnVhZevZef13fKi80e7ZOsRXm54ndTp9U9qc0qu0gzh96gu1ToBiC8FmDqWjXa+UZSuvPVX32rau2++0h3rh69gVbiqsgsKVEXDNL9flubXvL40Q3g5XrJhXnT5El4vCa+PRN/XKScd65aveZItL9mw6DLyWj8AKCnlKtgV/Tjqh1NnAF+eOScYurvC1LspDWqJqwBad7/0/J0w87pTpoq1t2x+lGuZrB98Cd8kDiVPrWzDlz8WlOrYRssWKCTOzKybfQBziLvcWJehlxR/yaJab4YPitSpxVv48ubS4G/OgrKlg2G1wgpf+u3LHyjM9QfF0c9HrcDUSlf1HaNlGAorfMmv528iVdCW4dH52Z5QGLoiIVwqBAAAAABQMOUu2BWd8dIdMCdNm+kuu1C5A5U90A3VfCveqTNez1XvJlnQWpp8XZ6xz+6qqeqf51WzR8LrqBa8Nw0d7p6jdPg6oxMnjHWPohp1ujt1uIZiMv4mQKJp1bJSLSWPbNrMXWI5fswTLpAV38oyr0sZ1apGoXBeNxrxdVK1/Ch/Wae79H7H7tt3qmVH+RsE6UZDfv1VG/izTz52z1G2/E2nwp+HQlF/4kDblm6mFv589Jmrla7qO0bLMBSWbyUZ/o745wVpQanvg7YnP4/eg74bbE9Ixf8Wq3V4uA46AAAAAKBgymWwK2d0OtW1yL3nkTGu35do8HV8mh5+iKuJ6/kwVWUOVIentKll8ZMP3upKL/j6OXrd4cMGunHJqJWuQmt/g7a+1w+1uwZd4e6eqda8KHlqAabaiOG6cKpRp9p2/lLDvHTs1Nkuv+hcN49qRN7z0EjXwlKhmuraia9Vp5py4RtgJeNvJBS+uYinYDWvgE6vpxv6qI7durXJb/4XXvY3WzYHQ5PT8lQrT60s/fofdmTTXJf6o+z4z1clN55+cpTbLsO1FLVtXXDJ5S78DddaVitd3aCsuGUY9B3584gnXLim11On70tBa4r674OfX9vUQQcfwvaElPR7qsu4KW0AAAAAAEWTsVO3Ni+kUc9/YJV+WGcXd6gXDEF58eNPO639LQvsrScuDIbE2+gX59t3O/5n53U+JhiC8uS3V42zd566OOhLH3+d+qFt/P4n6/1/5Xe7U2vHe+641QbecnuivmFFcfbVE+z1x3rb3nuV3bnJPqM72k//+9FGXTbT9vrZ3sHQ+Gtz6dM28f7zyvT/sqKb+OoCq5T9393n7GODIShPTr18vI0bdo5V3id9vufl3eR/LbSdP/5oV5yzq8FGQaTr7zJQFrT/z7qjefb+PyMYgvLuqdfW2g+VMvn7AcBuOJIDgBjSndSPPe6EChfqAgAAAACAHAS7ABAjvp7ztBcmW89eFwVDAQAAAABARUOwCwAxorq3I54c77qC1MAFAAAAAADpiWAXAAAAAAAAAGKGYBcAAAAAAAAAYoZgFwAAAAAAAABihmAXAAAAAAAAAGKGYBcAAAAAAAAAYoZgFwAAAAAAAABihmAXAAAAwB6RkZERPAMAAEBhEeymoa2/2M/e3fSj6wpj0w87E/P5buN//xeMLZjo/Iu/L9z8mj48/7KdlYIxKK+WRD4zdTuDcQWx6b+7b3cbCrndvReZ/4tCbnfR97A0e7srzHtA2fqmVm2bvf5Hy/r6h2BIwWj6aFcYa/b5ZeJ1CzsvAAAAAAAlLWNntuB5gY16/gOr9MM6u7hDvWAIyosff9pptWbUtO+rVXP9O7vVdI8F8dyq/1rPd74P+nJMbPULO6fBPkFfahlTNgXPcpzToFL2Mn4e9KWm19d6hP35h6V2Xudjgj6UJ7+9apwd1v8ce2ZF7s/sv2fWsH1+VrAWOC+s+cG6/fu7oC/HhON/buc3KnioX+nFTfZDKMs964B9bMpJvwj6Uuv13ve7vYe7dyyzi/6vedCH8qTVyPdsxWGH26yTf2Ht9y/671P7OnvbrFP2C/ry12d0R3up2m22plIz16959dqDj6zi+guiwxvfBs92Kejry5BPtu8WKOv1C/p/oHm1jLDFcxfZW39saXvvxXnesjLx1QX23//ttKxGhwdDcpxdfx/7w4GVg77Url6w1T4PncTKrJxhf21Z8P3t5Ox97VPLc//uPXj0vnbYLwq2LXy14392ybytQV+O7vUr2e8PLPhv99UfbbPPv/sp6DOrW/ln9mTLfYO+1Cavzn4PX5bse9j01Av2zN3nWOV99g6GoLQ9P/M/9r8ffrArzjkuGFIw+l3+6X8/2qjLZtpeP+PzAgqjzaVPW9YdzbP3/7SYj4unXltrP1TKtD5nHxsMAYAcHMkBAFBIWesLd0WEp/l8VxTh+YuyjOLOX1RbNm+y/pf0tpZHNNqt+3Dee8FUOV6eOsXuGnyj7dieO4ROJz/tNPvH2h9ydZ98W7grDeZs/CnX/LO+LtznuWTr/3LNr25z+AxZCtt+2v09fPztrpC2IOZs+DHX/K8VsiX8ku935ppfXXHfQ1nR9q3tPNl3Qt+BsIrwnQBQsbw7f5E1bNF5t+6GOx+x7Ttyn7Ara4uXrbTz+97kHgEgDgh209CR775tS39T3XWF0aXuPon5fNelbuFaQETnH9Gi4C1vZMQx++aaf9jPVgVjUF49dHTVXJ+Zur0LcfK/U+beu81/Zv2Ct8KUz3+de/7Hji3cdhd9D/fsvdp+VviLGVBGqq1fb/9qU/CWiZ5a+Ia7wrS2lZbf/83a1d4rp7VudlcUft6SmL8oyyju/MX11N+m2LxPVyS6Ka9k2bAhg3IFWZ3P6GY3DRlmlasU7vOJE13RcPGBlXN1x9cs3OfRtd4+uebv0aBwpYuaVdsr1/zq6lQu+J+Fv8j+oY/Of3zNvYKxBVP89/CzXPOrq1OpeO+hrNuu3XX/w7m+E7PeXmDTXphso0c8FExRMb4TACqedm2Os49mT7SV81923Rdvv+iG33bfY3s83AWAOCHYTUOVtm+3g/b9mesK4+fZBzh+Pt9pWGFE59+/UuHm379y7nWobWXXogxFs3/l3J+5usLcCGXfvZJsd4W8LOzAyPyZhQgnJPoe6mRvd9zLpfyqtnGDtVMwWYgyDKLpo11hHPDDf2zmyfu68gnqChsM+/nCXWHo9aLzF+Y9aNro/A0/+zQYu2ccePChduPgoTb2iZH25dLFwdD0t+9eZk+13DdX17MQZY/k1uztITz/fc2qBmMKpnPdfXLNr+7g7N+/gqqTvX+Pzt+zkMFsqbyHnxfvPRSwilCpqV6jpl1/8xCbOWP6bq3ZASCdValcybp37WgrVn9l27bvCIYCAFIh2AUAAHvMkU2b2dEtjrNFCxe4/uhl5+pPdpm6L++QNXNGrjIP4da/onAs2fwa/rszO+UKlPW83x96VaiQGeWPTnh07NTF3pn7puvnOwGgIouWbZgyfVYwxuyhx59xXVh4mKZVeYcJk19OzN+r3822acuu+x6o5EKnnv0S4//9/kfBmBxahh+nLvz6AFAexDLYjf64+i5ak0c/2Prh1s4AKIrowZPvorXu/MEUrWsqnnCdxLL4/AuyrekS3vBlvGHRA3rfaZladlh+ywFKii4vz8ysayuXfxkM2UXbqy5L1+XpvnTD1CmTcoVMzz3ztA194BE3XqUewq1/9Rv+ePY27Of3l7lr+EGHHGq162QmAmXR8waNGlu9AxoEQ4A9o2HjA23duq92q6vLdwJAutJx/ORpM23AH8+3mtVzrmrScf9NQ4fb7BdGu3INehw55rlChavjJ023fatWSZR7aFS/ro19dqobp7zg1ntHWd+Lz3HjVRpi+sw5tn5Dzt/EyhEmZa+TLxmh139u6r+ovwugXIlti93ePbq4H2b9wPquXmZtu+Tq2xNn4LRDmPDonXZCi6auHyiK7r/rbXM//NwdAPkuM7Ou/an/pYkgTJdOjnhyvB3T8njXj4pj7ZpVtmrFcjup7ak27cXJux2El0etT26XOKj3XdezutvlF52bKxy4rP8A1wF7yupVK4JnOdSS8dG/TnCPnrZd/QaLD6Y2b9rkvovz3nvH/pi9DfvxelS/gixpkf2brWk0rZ++5fGtqGWKcovvBIB0Mfut9+3odj0TjbSanHimC2FXrv7KjVfQ+/a8hS50PfSghm6YHtWv4QWtw6tavu3b5hyjqdzDiS2b2dp1G9z8WXPec0Fv545t3XjlBwqWPb8unl7/mZF3JdYHAMqDtCrF0OeiHrnOwAGl5cJL+lj9ho1s4oSxwRBUVL4104WX9rGP5r/vgt440s15dOnv+DFPuIN5oDxoc0p799jhxOauZblaFUbVb9AoeJbb9u3bbPXKFfb787rlap2ufq9V65MT31t/kqZps+bBWKD84TsBIF1Eb56m7pGh19uVg+51LWVVZ1f1dhtmH9+HNW96mH3z7fcFrsOrfKBqlcpBX25frlzjGocp8PVq1ahmdWrnnPzygbAPoCnDAKA8Sqtg1xdc145ArXajpRh8vz8rGK6vox/pVPV3dFZP00TH++H51fdBelHLla5ndrf5895zrXajl8f7fn/QFL7MXQdhunT/+WcnJB0vCtb85f3h8X549PJ4LpnfM/SZqJWTWjMd1bTZbpewavyNf+qf+Kz1OS788ANXr1A1EFXL0H/G0dIK+jz9uGjNw6jwtNo+tm7dGowpnE5dznAH8T6cDm9X0W0yvE56LM570nAtOxwo++8JIXP602esS84VKEWpNaGuhlCr8rvuf9huuvYqt/0kC7OiNm/aaBvWr3OXoodbp6vTMrXscH1fLjlHeaLSJMlayvKdAJDO1HJWV+ZGW8qGbdz8jW359rugr3T5K4DDobNyAAJeAOVJWgW7ojNsO3futI2btgRDcih8veeRMdaja8fEGUGVaAi37k1Vf0dlHnTphp9fy7rixnvc2UIN94Gyn179bVu1cP1IPzVq1nTbmg6UwhRSDH/wXncppD9g0qWN4da9k/8+3qruu68bpzIP4da/CgNV5kEHdH5+LWvQNVe61jYa7gNlP736k4UiKF3Llix2B8lqzaQDYveZB5ewet9s2WIfL1roPmcdOO9XrZpt3PC1zXl9Vvbvy0vu89XBuWoe6rPUvAo0FXT5EiAXXdrXBg7omzTc1cG8Pn9fWkHbh+opFkWNmrUsIyPDXbIb9fSTo1wJEr9Nap3CrXsL8p7Ez3/j4KGJ9xRuISaanst/K45Psr8fakWoS8bzo1blftty37Md+bfU0fasky3RS9fDtH1pO/vsk4/Z5lBu6Hfxg/ffTdlSlu8EgHSmVrY6Ho+GvOrPqxWujvlVZqGgDmx4QKIsg6fg2NfYDevWpYPLABTwFqYUBACUtrQLdvPiL+UIU/2ccA2d/OrvfLF0hduB+Po7oucapto8uiTk6/Ub3XTiH5scnPxyOKQvf6ljWLRWqWqc+ssp/UGUv0mKwkIFvaf9urMbL3quYW+9keUO9BQmajrxj6lCEZQ83bFc5Qt8bUN9NgooFVSFJTswVotvP0zz+ZME/tLX3hdfmhivz9+3oApTaKoWw+F6iZpWdaFLkrZLbZ9hChRuGjIs1/vK7z199+031rPXRW6cqB61/u9mTJ+62w17uPy34lCANWzIoFw1QcN04iJ8RUOu0L9y8ssqPX+yJXzjKIm2ENd2NvfNLPfdZZvDnqZt/d47B9uxx52Qq26ux3cCQDr76OMv3DG7jsn98bhuluZvVqZH9Wu4xiuYnf6vNxPjNb8aaxWUXkev9/LMOa5fjbPCV9yqZW74Kl7lAgp1/esDQHlQYYJdXUahFrb+8olomQXJ68yf6MygdhIq6u5LMfgC79LggExr2fwom/POfNevR7UI9nf0RMXhD5z85ZHRMguikLZKlapBX25qSaMWva2POSxx2bqea5jokkiFfAoVRY9qEZwsFEHp0WcabSkd/Wy8aL3DWrX3dy2+k1FrWbWaVcsqT2GpDtp1aW6YQlOFp+FlaVq1rC1JWqZC25EPP+C2x2SlIVK9p1f/8VKiJqTvtDzRthu+YQ+X/6avaG3Pbqe3d623daIgGQ3XtuG3Hf0WavvOa/ooTafW5Xod/5o6SXHtjYMTJyH891Yd2xzKmv9bwXfa1vU3RF43ruQ7ASBdRG+epk6h6vBhAxPH0Gole9egK6zdWZe58XrUzdM03I/v8quTE+N1DH5tvwvcuILQ6+j1Jk2b6ebX+nTp2DZRY1fL1zG9X08d/6smr399ACgP0i7Y1aUTjRvUc0FrlH6AdfmEirSLfqCTBbzJqLC66v2oRIOWEe603HB93yVfrqIMQwWgsCqv8EkHTro8UpfHiw7AkgW8ySi8U4tLfxl+uNNyfcimUHH5siWUYdhD1Hp67puzcwVVPoDXZ1KQz7owoqFuaVBQXK169aStv9XCVtugtksd7CsUSFX719PJCrVS9+Uiwp0PL3x93y+XLuHy3zSk8N7XBY122rbC9DsXbg2ubSQ8vd9m/DLD8ycb5n+PfRdtae6xzaEsaVvTthjeNn2nbTaM7wSAdKOwNHpMrU71bKMNo6LTRkNVXYHrx/krcv1VuZr27puvzNW6NjpMr+fr6Krr1b2zPTPyLjv0oIZufHj5/jUAoDxJq2BXl0ZMnjYz5aUR/sfbB7y+bEJ+dJmHLtPI7+6bKrtQfb9f2Nz3csI8yjCkL7UqnPZizk2z8jvo8QdUPuD1ZRPy07Dxga6Ug0o65EXBmwK4996em+hH2fGXvva96ppcB8fqpryS5UplKPgtimS1m/V6alGlbSMsWU1cP21RqCzCIYce5rbbvPgwwge80fIQyajFsv5Pwu8pSidIdKJk4YIPKMOAMuVLhfjyOEBFx3cCAAAgPtIq2B01dlKiJk+UWuWqdW74DpaFqYPrlxm+2Zpq+XTq2c+1zhUFxocf2tgG3vEwZRjSnG4kpfA12UGPWmqqdW74DtWFqYPrlxm+2ZpaRap15Ifz3nP9Ct4UwN156w2UYdgDfA1YtTKN8pewurICKW5kk4wPOMM3Jnvtny8nrXWoz12X7PqblImm9WU7CkPb68wZ05O+J62H6i+qDqNXmDq4/i7r4fcU/Z4oMNaJEm3TlGFAWdE27Vqf9/49v6NANr4TAAAA8RLbYDda71adbnT25IO3Jg1UNez26/u4Yut++puGDnfDChLAahrV31GI6+dXLR/V/FGI6/nyC5RhSB/Rere+Ht2fRzyR9KBHw66/eYi7OYmfXjcH0rCCHCRpmqEPPOIu5/fz6yBLdSjDl1L68guUYSh7atmaV/iogFKlMhTErlu7JhhacL5FbGZm3cR2p23pnodGJr2Rji6pVbjr6y0qUFb9xPyohISf3ne6CdtjY59N+hpapyuuvn63bfLyK65OOn2U5lf9RvHvydeRDF9yrJD48COP4vJflBl/SXv4txWoyPhOAAAAxEvGTl3zW0ijnv/AKv2wzi7uUC8YAk/Bb7Toe1n68aed1v6WBfbWExcGQ+Jt9Ivz7bsd/7PzOh8TDIGn1rtqqakQeE+1qvntVePsnacuDvrSx1+nfmgbv//Jev8f211ZUsv0e+641Qbecnu+gfHZV0+w1x/rbXvvVXbnJvuM7mg//e9HG3XZTNvrZ3sHQ+OvzaVP28T7zyvT/8uKbuKrC6xS9n93n7OPDYagPDn18vE2btg5Vnmf9Pmel3fPz/yP/e+HH+yKc44LhhRMuv4uA2VB+/+sO5pn7/8zgiEo7556ba39UCmTvx8A7IYjuRKmO3H26Npxj4S6qFjemfuma/G4p0JdoKSpXu+xx51QoFbAAAAAAABUdAS7JcTX21U5iM4d2wZDgZLn6+2qHMRpv+4cDAXiy9fbVTmInr0uCoYCAAAAAID8EOyWkEMPamgzJj5qd998pVWpXCkYCpQ8tWb8+4szXB1W6pAiHajV+Ygnx7uOFugAAAAAABQMwS4AAAAAAAAAxAzBLgAAAAAAAADEDMEuAAAAAAAAAMQMwS4AAAAAAAAAxAzBLgAAAAAAAADEDMEuAAAAAAAAAMQMwS4AAAAAAAAAxAzBLgAAAAAAAADEDMEuAAAAAAAAAMQMwS4AACiwL5cuthv/1N+2bN4UDMnx4bz3rOURjRKd+sNSjddyf3dmpzzHF9foEQ/Zy1OnBH05dmzfbncNvjHxmnquYRJd33CnZUXl9f+C9JfXZ6/tzW8z2rY1XVh0m49un56Wq+VH5y+uwn4nvJJ6XwDS2+JlK63fwLtt05ZvgyE5NLxTz37WsEVn102ZPisYk+Pd+YsS49SpP0zL69Xv5sT4hx5/JhhTMJo++pqplrl9x3/thjsfSYzXcw2T6LzhTsOj7x8AShrBLgAAKBAFNgMH9LVvtmwJhuTQ8GFDBtlTf5ti8z5d4R7V7wMfhaS/P69bYvystxfY4yMeSoS3frk3Dh7qxk95JcseG/5gYv7iUoA18uEHgr4cCqvuHzbEPZ/74efudVse38oN07hjWh7vhoU7rf/hRx5lnbqc4ebz8vp/QfrL67NXmDn2iZFuW9a2c89DI+2eO25NbNMKa++9c7BddGlfN17TafroCQ1NN+iaK23p4s+DISWjKN8J0XzTXpjsvsMar/XX+/Chtta/2+ntc32Xk70vAOlN4W3f64falm+/C4bkUMh5672jrO/F59jK+S/b7BdG28gxzyXCWz12u/gamzLmATf+o9kTXcjqx2v+K268x05o0dSNVycFDXc13f2Pjgv6cqRapgLc2+57zD3/4u0X3fgTWzZzwzSuZvX9bMKjdybmVaf1btfmOOvRtaMbDwCliWAXAACkpKBKgc1BhzQJhuyyaOECO7rFcXZk02auX6Fox05dbMb0qa7/nblvWt+rrnHDpXqNmvbH/gNs2ouTXWCk+TW9H3/gwYfasced4IYXh8Km/pf0tpkzpttJbU8NhuZYu2aVrVqx3HpffKlVrlLFDTvt153d4yeLFrrHMC1LYbSCLK2fl9//C9JbXp+9tul5772Ta1vR4xndeiS+E2+9kWX1GzZKbHMar+n9d0IUhnY4sbnt3LnTatXe3w0rruJ8JxRKaz59d/UdljantHePy5Ysduut9Q9/1/W+9N3WbwCAikGtYduddZkdelCjYMguXyxd4R7bt835jTj0oIYu5J08baYLSee8M9+u7XeBC1lFoeiAP56fGO/nv+jcXSdY9fyzxctdmJwX36p2+r/etFNbtwyG5ki1zFVr1tnyVWvtst7drErlSm58545t3eNHH3/hHqPGPjvVGtWvm5gOAEoTwS4AAMiXwqDXZ/3Ltb4774I/BEMLRmHPunVfWcPGBwZDctSoWdO++/Yb2759m3U+o5td1n9AMGaXlcu/DJ4VjcKzFi2Pzz7AeskaNGocDM2xedMmy8jIyF6PWsEQc2FWZmZdW70q5yAvbOKEsbmCOCnO/wviLb/PXtv06pUrrH6D3KGG+vVd0HdC27a2NR+gStNmzRPfCR+SqpX4wFtuD6YovuJ8JzS+dp1MO+iQXSc2FPCOeHK8C3L9+27V+uRgbA59t5N9vwGkHwWo/5z9tmuJ+4fzzwyGFoyC27XrNtiBDQ8IhuSoVaOaffPt97Zt+w5buforF5hWrVI5GGvuebX9fm4bN38TDNld1pz3XFj80riHrHGDesHQHKmWqU6/jbVqVg/Gmgt462XWdvNGqXWxAuRwEAwApWmPBrv64VfdnejZNX9GzdemSXZphYblV7smPD5cA6ckaH2T1QvSj7h/TXX+khGvsOPVUZen5BS1lpzm8+PVykUHc2GpxheHWscUpZalpte6+PFax7wk+39BySnKdlcS22VxFHW703z51VUszHaJ8kXhzbA/j8jVUjVMgdRH899PtHT1LfsU8PhgKBrSKiTS5eWbN20MhuyibUvzR0seFFZegbEoWFZLyPDr63um4C26rv79dD2ze64gLtX/C9JXfp99lSpV3UmA6AkC9Sv43LJlc9KTHbJl82a3TWo7u2nIsETL15JSnO+E1l/v6+Ps77n/HQ/X2NV8ml/Cv/X8jQFUHGph++g9N7iWuMk0OTjnhJeCVtFx7qRpM11pgxrVfuHC0i9XrnHjPAWrXyxdbhs3bbGG9evaitVfuZDX03MNSxayet26dHAtf5NJtUwFy/pt0+t7PoSOrquGq3Vxl1+dnOf/AQCUtD0W7OpHXLVs9CMd5ofnVzdHl3coBFXtGo3XtPc8MiYR3mpa/dD6GjjaQYwaO8mNK6686gVpffKrB5RqvGjH0btHl8R6q1O9HuryFJ8CpGgtOXn6yVHuUbXk1IkfJjoYmT/vvUQtObVyGf7gvYmQLdX44tCBUrK6fQo8UtWqvPyic63rWd0T47WOyQ6s8vp/QckoynanbSdVjcPyuN0ptM2vXqTGq06k1lXj1QnhbnpQuKUaoqqrqyBH25D6fSilgFffBb89aFtVa8QobX8KirSt6fLt0gxM6x3QwLVYHD/micR3R8H05L+Pd8/DoqUmgPwolNXvtn4Dfeip30DVpi3PCvKd0POPPng/8Tuu33x93/373Ljha7dvGPrAI7n2BYS7AETHtcOHDXRhrhoxHd2upwtcFbxK21YtXA1cf4zsg1LPB8MqdeApJJ791vtBX+GlWmaDAzJdK9/R46ck8gaVYBg/abp7HubLNpzRKXepGwAoTXsk2NUPtX7EdearTu2cGl1eqho3/qyedgA+8NR4nVHTD6zGa9rwpQ/6YdUwjSuO/OoFpaoHlGq86IyfQmgu2Sg5voVgslpyGqdwzLfAUqe6ch+8/647QNFBjWrkKSD1teR69rrItbbRgU6q8cWhA6C8ajamqlWp+n0KIPzlwhrvQt7sdfUHavn9v6D4irPdpapxqPkVDoRrHJaH7U71FcXXW1QgF64X6cdrXT09X7L480QggPjStqNg/7Gxz7owR4/q98G9thudFFBgq+D3onN/a21P7bBb3VBtN39/cUYi+E/WWr2k6Pt17Y2D3fPWxxzm1stv52F6ff1+Kqjz30kgFbWM1W+gflO1benE1jnnXxiMLZ8K8p3o/rveduElfYK+nP2T/ubwtYP1nb7+5iGJ/VNiX5C939L+C0DFphzg3MsG2u3X93GNmNSgScfD/gpbHSurIZQaRCn4/e0FA+y0k09IZAY+GNZy/BWuW7dtd42jiirVMnVsftt1l7vnTU480433x/ZRCxZ97kJghcEAUFbKPNj1Z930g33HwL7B0F1S1rjZtMUFwrokwtOPsWvhmz2vnie7/GPzN9/munyisBQK51UvSO8pv3pAm7PnTVUvKK9loHjyqyVXXunAJ6+6fQoY8qtV6S/vjAYQOsDUJZ1+WBz/X+KkOP+/qWsc5lzqqs/c0wG0Xi962W9hFGe7U13FVPwlvLpE2dPzX+xXzb1nxFeykw0++NdJDB/mKNz1rfwU3tbM3saj23qYyjDoJIdOdkQpMFbo5DvfEriw9N3Sb6NfLwVW0W3dn2xRuQmgMLTv9duW6tBu2/q9+x2sXr1G0vIkUr1GjTy/E/kpy+9EmN8/5SdaaxhAxeRzAN0szR+rKzRVgyy1clVrV3HH9cHVqzMmPmo1s4+ZwzVudbyvq1r9NCp7oEZeKqkQLseozrf8TSW/ZYrW8+6br0yM73NRj92O3fX+3p630JWVoKEWgLJU5sGu/1H0LVejUtW4SVa83IvWuBH9wOqyiVbH/rJYdW7yCoxF7ym/ekDfb92Wsl6Qf49XDro3sSOivm7x5VdLzodhvkWhqMWJgjhdjqiDFQWk4VYmCuxENw5JNb6otF551e3zB1B51apct3aNa7lZs3adXDVao5e75/f/guIrznaXqsZhsuDXSxYSFFRxtjutq9/m/XfAh33+JIMO7LVthkNgf6Od4gTSiAe16I22vlVLQH0XtO3pNyr6O5Uffb988KTOtyQvDG2jalkfDsCShbj5feeAvES3aW374ZbfCkr1ux7+Tqjkh052hU+AFVRZfCfCN3fz/P5J78eXcoierEt2Yg8AktEVstH746h1rLIDHY/rCt7z+96U6x49/opflVTQFbE+fFWXV+YQlmqZOh7XcXk4JPYlF5o3PSwYsiuz8GEwAJSVPVKKIT8lWTdHZ+x0ucS8BR+Xep2bVPWAUo1XuPv1+o32yNDrEzuiHl07unrDhLulRwdCmZl1E5ccSrhlqwI6lTHocGJzN14HZX8e8YQLIgoyvjQUpFblQ/fc4S7l18Gdr7FbmNAEpSu/7a4wdT/LUqrtTtu8aiq6MDf7Pek7oRab+o6ID34nThjrHkUh8Nw3Zwd9iCt99vodVF1Nf5JLj+r3wW305mrajsI3R0u2fek7cOxxJyQ92VAStF7hkyx5vSahFIpC27S2cV9q5rV/vuxOZPlyNXpUv4aLplMt2ugN+spSqu+EukMOPSzX77jWX99tfce13lr/8G+Bf1/RK4kAVDxqDNU9+/h25JjnEiGqb4TlyxcoKNWxu0osio6dp//rzcSxvK93O3XG665fx8k65tdxs4Lfoki1THUKiHXsrvX16xxtOJbsymIAKAvlLtjVD2dJ1c3xZ+xG3jvI3fAsfJatpOnHPr96QKnGa6egS0184Xhp3zantYW/ayhKlm+ZolYmvoWLnvs7POuARi3M1ErRj9cBi8I4hQ+pxpeWgtSqvHHw0EQwoQM1BWzhA0zsOam2Ox34FqTuZ1lLtd1pm9dN+1RbUe9JN35TOOBbaWo7VPCrkwyaX922rVtdvUbEX/Qklx7V71uu6/dIv0t++9FN1nRzNf87Fd2+tO3r5Iefv7T4WqF6vbxeU7/xGk4ohcLQNh2usauTXvoN1G+h6FG/ly70zB6v6TR9UVralqRU3wn/XOusTusf/S7rbw7/W+Dflz/JB6Bi0zHxXYOucPet0TGxGmHpylZd0avgV8fEGu+PmW8aOtwdy/sAVdMMvPLiRFag+/YogA0fQxdWQZap0gui9fXrrKwhLL8riwGgNJW7YFcU7uZV40ZnwHQmLFm93Lzq02pHoGXoMo4onS3s1LOf+xFXF730ozC0o/LrnKweUKrxUaotrHrDKB1qLahWWP7GVOJvAqLLIdWyTK1pwjd70gGLAjYFbanGRym0U3jnD4ailyUXhl7Hh4LhWpWqzZeMLu+P3qQIe0aq7U4UIOVV4zBZqQZP46PKYruruu/PXYirg3d/cK/3oFbj4RqpCjJUZ9Ivo+NvurjvEPUX40XbgT5HH1B5Cm78Z6suGuREtx+/rXjh8epKMtT136noOkW/a8leU8MKsi55/b8g/RXkO5FsvL4D/maB6vIKPzXdo3+dsNt3pjiK+53w4wvyXc7rfQFIbzr21TF9tCVt+JhYXTQgjR4zh1vFSjQrKEyoqxBXIXJ0nlTL9PP58dF1lrzeLwCUtnIX7KaqcaMQVEGCzoh5ulzCnWGrXzfp/PnxLWX9j7Q/W1hYqeoBpRqv9Y/W1KVOT3qJHsDpwEkHUIWVX63KRgce7B6jNUupERkfvkVvuNV3uMahPkN9luEahppHLWGTBaRlsd3pRkCpKGDu94deuVqNL1uS87w4NakBAAAAAKioyl2wW5AaN3quYT4EVT1etWw9+qgmiflV98aHqApNw7V5SkOqekCpxvvawuGyC+H3hZIXrW8n4VpxRzZt5lpWhmvJKWxTHUjVzks1vrSkqlWpx6lTJiUCNIV+4VqX2LNSbXf6jPKrcajx0Xqm2ga1LWqbLC35bXcKilWGRJfk+u3Or7e/KZyvHawbxYnfLvVe2C4BAAAAACi8chfsFqTGjZ6rpavGaRpNq3k0r7rbrrvcTaf6Nxofrc1TGrTs/OoBpRqvwFq1hSdNm+nGq1u7boN7L0VpQYzUFCaFb/akTs8fG/usC9AUVqnWqS6B9+NVF3LKK1nuMsNU40uL1i2/WpV6HHjL7TZwQF83XnXuFBQW5FJilL5U252kqnGoy1r1mfoahmqte8XV1xepJW5BpdrutM1rvK8n6dfbtxBWp3X0NXZ9DVYu0QUAAAAAoGgydqpYYyGNev4Dq/TDOru4Q71gCMqLH3/aae1vWWBvPXFhMCTeRr84377b8T87r/MxwRCUJ7+9apy989TFQV/6+OvUD23j9z9Z7/9juyuPzr56gr3+WG/be6+yOzfZZ3RH++l/P9qoy2baXj/bOxgaf20ufdom3n9emf5fVnQTX11glbL/u/ucfWwwBOXJqZePt3HDzrHK+6TP97y8e37mf+x/P/xgV5xzXDCkYNL1dxkoC9r/Z93RPHv/nxEMQXn31Gtr7YdKmfz9AGA3HMkBAAAAAAAAQMwQ7AIAAAAAAABAzBDsAgAAAAAAAEDMUGM3zVBjF2WJGrvYE6ixW3JUY++4pvWDPpSVXx5Umxp55ZRq7B5zRPz+vv3xxx+DZ2Z77x2/36gjGtWkxi5QhrT/b31kjaAvfcT9tzCVww5pxN8PAHZDsJtmCHZRlgh2sScQ7JacN+avCJ6hrJ3SolHwDOVJXL8TN910k3300Ud211132dFHHx0MjZfCficIdoGiS9f9fzr8FqbC3w8Aogh20wzBLsoSwS72BIJdAMitQ4cOlpWVZbNmzbL27dsHQ9Mbv8sAoiribyEAUGMXAAAAAAAAAGKmyC12P1/C5Zvl1dxPNqdVi90Fi9cHfShv3v5oZdq22P3g86+DPpQ37y9aTYtdAAihxS6/ywBosQugYipSsEtNvvIvXWrvsK2Vf+lY54ntrvxrfXQDgl0ACBDs8rsMgGAXQMVUpGAXAICKhAABQHlGsMvvMgCCXQAVEzV2AQAAAAAAACBmCHYBAAAAAAAAIGYIdgEAAAAAAAAgZgh2AQAAAAAAACBmCHYBAAAAAAAAIGYIdgEAAAAAAAAgZgh2AQAAAAAAACBmCHYBAAAAAAAAIGYydmYLngMAgCT6jO5oP/3vRxt12Uzb62d7B0NLz39WvmsjX73Zdvy4PRiyS+W9q1jf39xp/1ww0fUP6HKfeyyOr79ZZXe/0N++2bbJOh7dw37X5spgTOn5fsc39sDUq+3w+i3K5PXy8sYn0+zp2fcl/l9/2fAEN7wgn8HG776yF955wm44a4TtX61BMLbwtA6zFk6xa8540H5euVpimNbrwnbX2SlHdnXDCvp/pnkLsl7hzz2sUe0mu61LSbzPkvT3tx6xmR9NCvqszLbb8qpDhw6WlZVls2bNsvbt2wdD01tZ/y4DKP8q4m8hANBiFwCAckbh4vBLXrXRl8+2Af93v+1XtaZ7VL+G+/CxpMxc+LxV37e2PXTx1AoVjikoVaCqUDD6/1qWn0GtX9S1zVs32LKvPw2GmK3auNT2r1bf3l8yOxhibrymO7rxScGQ1BRQ/+nps9xjXhQe632p0zYgCpD1/1MePTT9Onv3i5k29Lxn3DrrUf0KewEAAICKhGAXAABYtX1rJVpoVjQNah0cPNszDtr/CKuxb23XAlgUqH759ad20mG/th0/bEsErBqv6TR9adE20LfT7bZl6wabt/R1N0wthh+48IVy0VpXAfXy9Z/bH067KbE+ejyr1aUu3FUrZAAAAKCiINgFACCmFPrdPukSu+yxdnbFk7/J1SpTAdc1T5/lxqnT5fTJ+Eva/7PiHTe95tNytLzochUw6vXCLSPVelKd6DW0DL9O6sLThpd71/OX2/YftgZjcmhaP5+W4QNNzTfob+cllqvXUeenjb73qGTvR8tWq9QVG75wJQ/8eyiKyW8/nliX8Pst6GegMFXBulrpytYd37rPtvmBbV2/b8mr8T6A95+FX7b/7MIUBP/1tbvs222bXFmJ/P6PwvatvJ9rwe3Xx3+uWn70df3/mx9+z4tXJP6vo+uU7HMQLT/8eWsefd7J1vej5f9OGm4nC5+1btH1FD3Xevr3ofX8eNV7ic8qvN7+vY/65+DEssKfY/g9qYu+jl7DLzf8njUuvK1E/w8AAACAgiDYBQAgplas/9y6n9THXY7e5IDmNvnfo1wwpG7kjFvthCYd3TiVEJjyzhNJgzKVXlApAtVVvf3cp90whYHntr3SzXvyUV1dfzQ0zIvqtaoGrObVJf5vfjzNva7WSeun5Wlc52N7ZS9zdTBXTrAVvrxeAebomXcEY7OXu3VjYrlH1j/WXv5gQqI0gtbVv/corXey96PwVHVk9b71/otaq1jvt8bP67hlR99vQT8DOe6QdvbZ6vluvk9Wf+Dev8LLyvtUdWGmrN283E0nU98fm/N/lL1slU9QEKuSGmEq8aCWrSojEa4fnIoPmvV6UdHX1ecSDjrXbVlpg8/5a2KdJrz5kBse/Rz06LcrfZ4K+X2ArfdfZZ99k7ZM1jrp9VO1LldoqnXTemib0nclHKT6745fzydm3ulqCGtaCf9f6jPW+vnP+Nk5j+Tapv170mes1sThz1j/H/oMND78HQ1/3qKSG9q+U70vAAAAIIxgFwCAmFJQ5MO6ejUau0dRQKYgqmOzs12/pmlc57BEQJgfhWqisE38MvzwVKpVrZmYR8FipX2quufR+rAtDz7Vhaqegi2FoL7F5a+b93ShmA+UtZxwbVm1aPU3kFNrzVt7PJk0FCvu+0klv/dbmM9A82p6Bc5qKes/TwWACjP1/6Cg0r8PBfI+jNY8Kp1QVr5Ys8CFl/r/1v+7v7mb+M/Qh8Oe/r8VoOpzFz2qX8M1fWb1hon/m+KGnApLFZr6ZWj5Wq9wkOq/O349G2V/NprOt1YO083ytD2K1tuva/T9q4X0f7O3y7C8vqPhMFufrbb1wtROBgAAAIRgFwCANKOASa1hB/3t/MQl4iq1kKwFZpRCRQVbCrhKktYpI/sxs1p91x8O/hS2KbRUSYjEJe3/uNYNWxdq1espgFPrSrW6TEwfugQ+rLTeTyqF/QzUOlXr+WX2e1J9XR/yKQDU/4MCULXe9e9DrWT9coc89wfb6YaWDP95hINIT4GyWj3r89Frh8sL5Eefg8peDBhzhptPj+r35R58C1aFnArt8wo5tU5aNx/QJuOD7pKqnaz/92TbrWi785+DWmT7YD+VcJitbVyffWnWTgYAAEB6ItgFACDNqPXn/tXqJ8oa+K4g5QYUhikUUzhWkrROCh99UOvDQ/FhmUoihNd3+CWvJlo7RikYU01V977+737XijRcEsArrfeTSmE/A/0fKEBcvXGJCzZ9kKggV8MXr11oB+5/hJtO/3ezFk5J/H/d0/s5V3e2pKgVqVqQ5hWMKtz178eXF0j1/6tlqYW2Sh/4edVpWeJbsM797FXXn1fIqcBXLb+1jmEKl//09Fnu0be69aFxcenzSLbd6rVUesGXBLnktJvc8ILyYbZKkPjPFgAAACgMgl0AAFKoW6ORe1yxYbF7LO8UiqlGqa8TqlaQuoFTuMZoXvyl/r5UgV+GhvsA1l/SruWq1WxBaJ0UPvryCT489BRyKeDSMkXrGr6JVVg4xBOFoFovhalR+b2f0lSUz0D/Bx+vmudaciq4Fv2fK/T7bM2HuwWtvvXvvKWvu9avJUGfq4JarYMvmxCmFqrh1tFqQav/+1QtovX/rYBd6yr67NTa14fxvgWravgqyM4r5PQlLcJ1n/06a7gvr6AyDOHtVNtWUcs77Phxe6JMhNY/XDZBpRfUOlu0bUdLMeTH/5/M+fTlPEN0JLd601L76X8/Wu396tleP9s7GAoAAFDxEOwCAJBC49qHuceChph7msKrvp1ud2GWLhFXOQDVEPWtI/OjgE03e9INojSvbgamfh80+tq3upT+7hf622EHHOOGp+LXyZdPUDCnIM9TnVLVQfWlC6KvG6bwrlurSxPlADRP8wPbJG3dm+r9lJaifAYKpvX/o5uxhSn0U6tRH0Zr2R2adXOlHbRs1aT9ZaNWScs8+EBd/1fJWjTL07Pvc8tRp89VQW1eNYsv63iLa7Hqp9f763XygGBs3qKfg9bn5KO65qrPq2A7/JgXtXoObytaZ4W24dbQ+n/W+9C4wmz/yaiOskJivZb+r3SzNG1r6tRi2f//HZJ5lAulfdCbiv5PtF5afmmfaEg3KlkiB9ahfAUAAKjYMnZmC54DAIAk1BJv4twR1q7pmdb7lD8FQwGUJLXinfDGn+3q/7u/1IP3glIY/sI7T7iazqWxTmrBrUC+IGVS8tOhQwfLysqyWbNmWfv27YOh6Uv/b6rJfXarP1rnY3sFQwFUdBXttxAAhBa7AACk0LjO4e5x+frP3COAkqdyB+EyFOlOZSLUEjhVC2Xszv8Wq/wG9qwNGzbYeeedZ59+mrvutYaffvrplpGR4bo77rgjGJMjOl7PNczT8lq0aJEYr0790dcBAKCiI9gFACAFXc5eae/KtnTdx4mbOwEoGQo4b590SYHLOqQDtU4eOP4cVy4iXI4Cqb39xb/s8zUL7GcZP7ODMo8MhmJPUBDbq1cv+/jjj4MhOfzwtm3bmi4O9ReI+nDXj7/gggsS4/Vcw3y4u379eqtXr5579NPMnz/fjjiC8hsAAIQR7AIAkILqZvY4qZ97rpIM327b5J4DKD7V8lVN3wcufKHctdZV6Foa66X6vMMvebXYJRgqmm+3b7Zn3xrunp/b5oqkdaBRNubMmWN16tRxgWvdurlvXPnJJ5+4x379cvaboueLFi1yLW79eLXS9fxzP27ZsmV20EEH2b777uv6AQBAcgS7AAAUQIdfnmXHHNjWvtu+xSbOfTQYCgAoKwp1dWLtmAPb2GnNugdDUVhqOXv99ddbnz59EmUOJkyYkKv8QX5lD7Zt22bjxo2zN9980x5++OFg6C7JQlk9r169umuBq5a8r7zyitWuXTsYu7slS5ZYgwYNrGrVqsEQAACQDMEuAAAF1LN1f9t7r33s35/PsLGz77XtP2wNxgAASsvWHd/ZmKy77e3P/2n77FXJzm1zZTAGRXXfffclSiEooO3du7c9+OCDNnfuXDese/furl8hbpTC1lGjRrmANhmFugp3t27dtY/Ucw1Tl4xa6q5du9a1AtZrrlq1ym699Vbq6wIAkALBLgAABZRZvYGd33aAO8h885N/2JDnfm8fLHsjGAsAKGnvLcmy25672OZ8+rKrq3veyf/P9q9WPxiLorr88sutZcuW7vmRRx5pv/nNb1zQ61vIHnLIIe6xKLQ8efTRXVe3qIXuq68mr1GvwLZ///523XXXuRq6PgS+/fbbE/V1R4wYYeeeey7hLgAAEQS7AAAUwilHdbXBPZ6yoxocZ+u/XWuPvnqzjXj1Jps2b6wtWD7XtmzdGEwJACisTd9/bR9++Za99N5TNvyVG+2xfw52w37ZsJXd1nMMN5srIaVZ5kAlFlTaQXV4fYvb77//3oXJUQpqFdiqhbBuniaaX0HwLbfc4vpFIfRJJ51kEydODIYAAADJ2KlToAAAoNBe/mCCPf/O40HfLjV+Xid4BgClb8OGDbZjxw4XiFWuXDkYGk+bv18fPNvlnJP6Wadjzg36UFyqsSs+ONX2o1BV/b68goLZN954w5VjyC8AVjB71VVXuVq7am2bl2SvEQ51wyFuXqLrDUR16NDBsrKybNasWda+fftgKACkN4JdAACK4etvVtvSdR/bl19/asvXf2bLsrvt//0+GAsAKIx9K+9nB9Y53A7c/3BrnP14cGZTq7NfvWAsSkJpB7vJhqn1rl5Xy9UJCB/qqvyCb6nrJZtfdXevvvpqO+WUU3abHvAIdgFURAS7AACUsGQtzgCgtPTo0cPd9GrSpEnWunXrYGg8ccVD6SvtYNeHsCr3oGX65auGrx6j/VHR+UXrM27cuEQwDCRDsAugIiLYBQAAAGKMMAOFUdhgd/ny5XmWW0gW7Ipfpr9h2vjx4xMhrpbdu3dv9zzKT+fD3ccee8wN183dCHWRCr+FACoigl0AAAAgxggzAIDfQgAV08+CRwAAAAAAAABATBDsAgAAAAAAAEDMEOwCAAAAAAAAQMwQ7AIAAAAAAABAzBDsAgAAAAAAAEDMEOwCAAAAAAAAQMwQ7AIAAAAAAABAzBDsAgAAAAAAAEDMEOwCAAAAAAAAQMwQ7AIAAAAAAABAzBDsAgAAAAAAAEDMZOzMFjwHAAAAEDMdOnSwrKwsmzVrVjAEACqeIUOGJH4L27dvHwwFgPRGsAsAAADEmA92AQBGsAugQiHYBQAAAGJMwS72rPnz59vmzZutRYsWVqNGjWAoKpJly5a57qCDDnId9pzBgwcT7AKoMAh2AQAAAKAYwuUwCJQqJpUBuO2221ynYBEAgLLAzdMAAAAAAAAAIGYIdgEAAAAAAAAgZgh2AQAAAAAAACBmCHYBAAAAAAAAIGYIdgEAAAAAAAAgZgh2AQAAAAAAACBmCHYBAAAAAAAAIGYIdgEAAAAAAAAgZgh2AQAAAAAAACBmCHYBAAAAAAAAIGYIdgEAAAAAAAAgZgh2AQAAAAAAACBmCHYBAAAAAAAAIGYIdgEAAAAAAAAgZgh2AQAAAAAAACBmCHYBAAAAAAAAIGYIdgEAAAAAAAAgZgh2AQAAAAAAACBmCHYBAAAAAAAAIGYIdgEAAAAAAAAgZgh2AQAAAAAAACBmCHYBAAAAAAAAIGYIdgEAAAAAAAAgZgh2AQAAAAAAACBmCHYBAAAAAAAAIGYIdgEAAAAAAAAgZgh2AQAAAAAAACBmCHYBAAAAAAAAIGYIdgEAAAAAAAAgZgh2AQAAAAAAACBmCHYBAAAAAAAAIGYIdgEAAAAAAAAgZgh2AQAAAAAAACBmCHYBAAAAAAAAIGYIdgEAAAAAAAAgZgh2AQAAAAAAACBmCHYBAAAAAAAAIGYIdgEAAAAAAAAgZgh2AQAAAAAAACBmCHYBAAAAAAAAIGYIdgEAAAAAAAAgZgh2AQAAAAAAACBmCHYBAAAAAAAAIGYIdgEAANJAhw4dLCMjg46Obg90WVlZwTcRAACg7BDsAgAAAAAAAEDMEOwCAACkkVmzZtnOnTvp6Oj2QNe+ffvgmwgAAFD6CHYBAAAAAAAAIGYIdgEAAAAAAAAgZgh2AQAAAAAAACBmCHYBAAAAAAAAIGYIdgEAAAAAAAAgZgh2AQAAAAAAACBmCHYBAAAAACgBt912m2VkZNDR7ZGuQ4cOwZYIoKIg2AUAAAAAAACAmCHYBQAAAACgGAYPHmw7d+6ko9sj3axZs4ItEUBFQ7ALAAAAAAAAADFDsAsAAAAAAAAAMUOwCwAAAAAAAAAxQ7ALAAAAAAAAADFDsAsAAAAAAAAAMUOwCwAAAAAAAAAxQ7ALAAAAAAAAADFDsAsAAAAAAAAAMUOwCwAAAAAAAAAxQ7ALAAAAAAAAADFDsAsAAAAAAAAAMUOwCwAAAAAAAAAxQ7ALAAAAAAAAADFDsAsAAAAAAAAAMUOwCwAAAAAAAAAxQ7ALAAAAAAAAADFDsAsAAAAAAAAAMUOwCwAAAAAAAAAxQ7ALAAAAAAAAADFDsAsAAAAAAAAAMZOxM1vwHACQhylZnwbPUN51a39E8AzIX7p9r2+9+kJbOP8du/3Bp61Zi1bB0PTA9xoAgLxlZWVZhw4drH379jZr1qxgKICKgGAXAAqgzaVP269OahL0obxqdlBN6/mro4I+IH+nXj7OTm9ZO+hDeXXwwQfZeZ2aBn0AACCKYBeouAh2AaAAFOxOvP8823svKtiUV6MnvWtHNKpOsIsCU7D7yq3NrMo+fK/Lq7/8Y43Va9CYYBcAgHwQ7AIVF0cyAAAAAAAAABAzBLsAAAAAAAAAEDMEuwAAAAAAAAAQMwS7AAAAAAAAABAzBLsAAAAAAAAAEDMEuwAAAAAAAAAQMxk7swXPAQB5aHPp0zbx/vNs7704H1ZejZ70rh3RqLr1/NVRwRAgf6dePs5eubWZVdmH73V59Zd/rLF6DRrbeZ2aBkOA9DYl69PgGcra/7VtYpX22SvoQ7pJ9+/Wwvnv2K1XX2jNWrSy2x98Ohiavrq1PyJ4hqJgX7PnlMa2S7ALAAVAsFv+EeyisAh2yz+CXVQ0T09faF+s/iboQ1l57Z3F9tqI8wl205j+lu96Qp2gD3FWa/8DrM/ZxwZ9KAp9H351UpOgD2Wlfq2qpbLtEuwCQAEQ7JZ/BLsoLILd8o9gFxWNgt21m7fbhWcQWpSlHtc8Q7Cb5vS3fNYdzbP/ls8IhiCOnnptrf1QKZNgt5g4ti17E19dYJWy/7tLY9vlUwQAAAAAAACAmCHYBQAAAAAAAICYIdgFAAAAAAAAgJgh2AUAAAAAACiAKdNnWcMWnRNdp579bPGylcHYnPE33PmIbd/x32BI+aT17NXvZtu05dtgSG4arvEPPf5MMARAeUSwCwAAAAAAkIJCzrfnLbQv3n7RVs5/2XV3DbrC2p11mb07f1EwVXzoXvqPPjUxaQg9aeq/3HigOF6eOsVaHtEoaTd6xEPBVKlt2bzJ+l/S2z6c914wpOR89vEi27F9e9AXPwS7AAAAAAAA+VALVoW33bt2tCqVKwVDzU5o0dSu7XeBzXlnfjAkPho3qGc/37eqrVqzLhiSQ+/1+63b7JdHHBIMAYqu++9629wPP7d5n65IdLPeXmDz571XqHC3NCh4fu7v44K+eCLYBQAAAAAAKICVq78Knu0y4I/nuy7sgZHjEuUaoqUZFBCHyzmoU2kEUajab+DdNmHyy264L5eg+bUcP324jIIe1T8j69/uMbrM/BzX/CibOuP1oC9H1pz37MCGB7jQ14u+fnQdRCUpVJrCj6eMA/JSvUZN+2P/AS7c3bxpYzAURUGwCwAAAAAAkI+a1fezHl072pWD7k0aaoaNnzTdmh5+iCvVoLINMmrsJPeo8PPBxybY7BdGJ8o5PDL0ehs55rlErd4t335nH338hZt3wqN3umGXXH271cusnZhHLYWvuPGeXOswduI0Gz5soBs/ZcwDuZaZlyYHN7K16zYklqMAd9FnS6x508Ncv6f1D7/+R7MnuuFjn53qHhVW971+qI28d5Abr3XXcgl3kZfVq1YEz3KoHMJdg29MlGpQ6QWVYAhb/Pmn9rszOyWmmf/+u8GYHCrV4MepU4tcT62DJ4wZ7ZarcaMe/rPddO1VNvnv4+2ic39rXy5dHEwZLwS7AAAAAAAAKXTr0sEFmu3aHGez33rfjm7X04W80Ra5Gt++7fHuuco2nNiymQs5Nc2hBzW0Z0be5R49hah1atcM+nJoHl/y4YulOQHYReee4R7FP/fjRMGzAmhRYLt/nVq2cfM3rj8vNWtUc4GtX44vy9DggEz36EVbJet1FC57KkXR9+JzEu9L635Z7272zgf/SRkuo+JRYDvthcnW9azuVqNmLdf/p/6XWmZm3US5hhYtj7dB11yZK9ydOeNle2zss278U3+bYnffflMikFWI+/iIh1yZB1/uQa8RDnenTnnOrr95iBvf56o/2V33P+xKRYx99iU78OBDg6nihWAXAAAAAACgABRoqhWtb7mq1rZqoetb5Eqj+nWtapXKQV9yvnyCgmHdfG39htwtExtmL8NT+YfoMn2wGi4NEZ6nMNq2apGoEbxg0eeutXG4jnCYyjv4Ugv3P5pTm1SBtYJr35rZd8neFyoetYhtfcxhuVrSdjixuQt1O5/RzU2zbElOONuz10XuUfxzP05UvkFlHOSYlsdbx05dbMb0qa6177z33sk13pd7ULjrw+GjWxxn9Q5o4J6nC4JdAAAAAACAIlArXoW7KkWQV2mGMF+HVq191cJW4bDKMkRb7Kbiw9SS4MsxrPlqfdIyDKKSCgprJ02b6Vota7110zjZtn2HrVj9lft/8IG372ZMfDRX62RUPOGbp6kVbeuT21nfq65JhLqisgz1GzayKlV21XVWMKtWu75kQ7Xq1a1Gzdzfk4aND7R1676yLVs22+qVK+z353XLFSCrPywzs65VrlIl6EsPBLsAAAAAAAD5UEvVvOrqFqalrFrEtmx+lKtBq1BYVC4hv5atWr6CUwWong9Ti9pKN0ytf1WO4bU3c+qVRssw6D0ruFbdXrVW1vThYFktidWi+MuVa1w/kBeFtSqFMHPGdFfzNj9qhavQtiC2bNpkG9avc+UZFCCHuxFPjk+04k1HBLsAUASq0xM+ExjuUu2gSprWRUXmteNLRjWH+v2hV9Ji8FrXZPNqmSpKH51HxehVbH7hhx8klqnLWjRM40TL9P8HqdYNiJvwZZPRTgc8YWrZsqduGKKDLdX7y+/1/R25o+tdGHvyPQIAUJZ8zdx7Hhnj9rOenk+eNjNXfdtUwiGtWvDeNHS4e54XtagVf6My8c/9uOI6sOEBNvCOh/MtwxAu+6DSEypBIZq+e/b7V2mG8N8V+YXhqLhUy/aiS/vayIcfSBxD1m/QyLW43b59m+sXPdcwjZNvtmyxzZtynwBZufxL1wo3s149q10nc7cbslUEBLsAUEThS0p8p0tL5mfvnMo63C2qVq1P3m0HqhD2s08+tlq197dFCxcEQ3O8M/dNdzlMs2OOtUf/OiFlgXldXnPTkGFpd7kLoBYr4csMdQmlDsp0AONFbzKyJ3z6xZe51snTAZYOQpsefnAwpGjKw3sEAKAs+Nq6atna5MQzEyd29Vyhpm99m4qmU21cf+O1vtcPtbsGXeFudKbWvMnotZ988FbXQta/rgLU4cMGFjhMTkXlF05t3TJpGQa9xu3X97GRY55LvL6ES1DoPenvo24XX5OYZlL23xoluY5IH6f9urM7np724mR3LHrQITnHlRMnjHWP4p/7caKbo/l6uQqF1fK3U5czXItc1ewd+8TIXI2T8mrI5CULlOOGYBcASpAv0K5wN3z3zvJKNYp27txpmzdtDIaYrV2zyj3+6jddXAF6vxPUoy6FUR0jALmpdpwOynTAU57u/Nyy+ZHusshwyyLRna+1zjqIBAAABacTmuGTu+oUanoKbu+++cpcrV6jw8LLUA1aza/QWNP5ADm8TNG8Woafz5dEkGTz5LUcL7pO+rvgmZF35aqHGz6Bq+FaV//6Gq5lhNdDr+XHR9cRCFPDn65ndnc3Vhv35GPuOPrPI55wx5v+SlgdUw994JFcZRQ6dupsl190rhs/bMggu/vBRxONjdSoSC2Bu53ePrEMLe/aGwfn2dDIh8a6mZtvPRw3BLsAUMKSXf6hM4V+5xIuceDLGGTNnOEe/TQqYeApUNVZRj9OnabNKzjWsvUaftr33/l3MGZ3uiNog0aNc7XM1fN9993Xjmt1kn337TeJs5cKfFetWG5NmzV3r5FXeYewaCkG7SzD70Odf6/+/+L5Zyck1t//X2kaPz2lHVBeHX1UE1czz7e2iZYp0HPfgkWdbpziQ2A9nt/3JpuR9W833E8TLZMQXkZ4/rzUqVXDPX708RfuURTyzsiaay2aHREMyeHLN/jlqwtfPqmWv3c99GRiGvVH36PWJ7z+4XEAAACoWPK7gvOYlse7q14v6z/A9WsaTeuvhg3XxtWj+s8+t5f9/cUZbrweDzqkiRvv6fX8/OrCr63X8a/l+eVqWq1PHBHsAkAJUjg57YXJ7jIQ7SR8KKszhb5sg84iDhzQN1co+twzT7uzkRqvgu/hS0iefnKUqxvkd04q9yDhy1Q8vf69dw52r+GnnTnjZdu44etgity0k9OyVZtItL5qpasSDTVq1nJ1jJYtyVkP1TPKyMhww4tC7+ex4Q/alFeyEu/lrvsf3u1yGa3vY2OfdeM7durizriKfz+6VOa1f77shgHliVq86PLMZDcOUQiqyyd1oxS1YNGjQuDR46ckWtPqpim6aclL4x5y0+jyRgWjClZ96Coap04thHX5Zqpwt22rFjbnnflBn9mqNevcY8PIjVFUK0/r75evO15LuJ7fyDGT3OWmGq9WOmEKobU+I+8d5MbrPeo9E+4CAAAApYNgFwCKSJeNtD7msERLUnW6hEOhrs4Uim/l2vviSxNnClVP6OgWx+VqJeuDYNHlICr87gvDR88sajrVuU3mrTeyrH7DRu41RNOqNER+FOIqeFao61vnah3866iurvj6un49C0uXyETr8qr1r2r5hoX/L7RurU9uZ21OyQl3q1Sp6t4fEDfRyx31eGLLZu55mEJTP41q3KlUysZNW1wY+82339tF557hxokud+zyq5Nt6ozXgyHJ6aYqClh9y1u1KHY3RqlS2fV74cstRZdORi/fbNfmuDxv0qLwuO/F5yQu4dT7uKx3N3vng/+kDJ8BAAAAFB7BLgAUUfjmaWpJqgCy71XXJEJdSdbKVQFvy+NbJVrJir/TZ37C5Qh0B9Fk/F1BfYgsqqMbDU/DFOKq5IJCaLXO1fzhYFWhr1oC61H9xeVLLuh9qDVutDVxQf4vgLhSq1ZfpuDKQfcGQ3PUqZ39Xa1RLejLbePmb+ylV2cnbrTiO919OhUFtGqJq7q6avm76LMlSW+M4ql1cV7Lb1S/rlWNBMKi5So81nsKr1+7sy5zLZEBAAAAlDyCXQAoAQpCr795iLsrp+rpphIOdVPx9XlV4kEBsoJkBcglRa1gf7FfNRdCq1Vu+OZoCoXV4liBr8Jf9ReVyi2oZq5v1az3obIM+YXOQJz4cFOlD6J8WHrT0OE2+4XRrlSBSi0U1MrVX7nWsiqPoHnDXbiVbV58OQZfhqFBpAyDqGSC1nHStJmJ17m23wXB2Pxt277DVmSvo95TdP10o5XwjVgAAAAAlAyCXQAoISoxoNq2ak3r76ipIFSXUm/etNH1i0oeqPVrOEDNi1q36m6gqrvri8f7+ZPRMn1ZBU+BbV41dsW3INYN3LZu3erKI3j+5moKfBX+qr+oVHpCJSjUytm3ak61bkCc6AZlCjejpQoU+L49b6ELPcMhZ7JavHlpWL+ufb1+oyvLUBS+HINq+LoyDEG5B09lGtSaeMqYBxJ3sPZBdUGoFa9a8xbmPQEAAAAoHoJdAChBqm2rEg3TXpzswlUfjI4f80QibNWNvz6a/36uADWV1atWBM9ybqam+r7JqBZt+OZiCoYfL0ALYpU/0E3Mvvvu21zhrb+5msJqPYZLPBSF1s3X8VUL3mFDBrnnQNyphqxa4/bo2tGFosmEQ0+14C1IGQXv6KOa7HazNYWxvfrd7JaVii+f8NxL/8y3DINaBnu6mdr4SdODvvwpKFZ9YL0nBcSe1k3r6Ov7AgAAACg5BLsAUIIUfHY9s7sLXhXAqv+mIcNcKOpvtKYA9Z6HRua6iVhefIkHzePr68pd9z/sWvIquA3T9EMfeMSVbdC0KnvQsVPnlOUOVGdXNYLVcjca3vq6usWtr6tWurr5mtZJ6zZwQF+7cfBQd6O48I3kgDjodvE1u9WSvWvQFe4maVEKPQdeeXGu+rpqwfu3UUNt3oKPE+UR8qNl3Hbd5e55kxPPdMtQvV0FycleM0rz62ZtCoeTlWFQGH379X1s5JjnEusoamWs9S5IMKsbranFb/j/RmUdhg8bmGfYDQAAAKDoMnbqGmEAQL7aXPq0Tbz/PNt7L86HlVejJ71rRzSqbj1/dVQwBMjfqZePs1dubWZV9uF7XV795R9rrF6DxnZep6bBECC9PT19oa3dvN0uPOPYYAjKQo9rnrHXRpxvlfbZKxiCdKO/5bPuaJ79t3xGMARx9NRra+2HSpnW52x+I4uDY9uyN/HVBVYp+7+7NLZdPkUAAAAAAAAAiBmCXQAAAAAAAACIGYJdAAAAAAAAAIgZgl0AAAAAAAAAiBmCXQAAAAAAAACIGYJdAAAAAAAAAIgZgl0AAAAAAAAAiBmCXQAAAAAAgDI0Zfosa9ii827dDXc+Ytt3/DeYymzTlm+tV7+b7d35i4IhALALwS4AAAAAxNiH896z353Zyb5cujgYkkP9Gv7y1CnBkBxbNm+y/pf0tjmvz3KPml9Gj3jIdaJ57hp8o+3Yvt0tp98feu22/NKk19XrtzyiUaLz6wOki949utgXb79oK+e/nOjqZda2S66+3QW6UrP6fjbh0TvthBZNXT9QHiT7jfad36eUJr9/0+tF93FRfp+X33qF93+yfNkSN18cEOwCAAAAQIwddMihVrtOpm3elPsgdNHCBdnjmti8997JFYguW5IT0DZr3sJGPDnejml5vOvPy4EHH2qP/nWCeywLOpj+U/9LreXxrWzepysSXWZmXTc8LgfbQFH0uaiHNapf18Y+OzUYApRfd93/cK7f6af+NsV+f163Ug93Z0yfah07dXGv2fmMbsHQkqF1v+eOW4O+8o9gFwAAAABirEqVqla/YSNbvWpFMCSnNdVnn3xsp3c9y1atWG5r16wKxpibTtNrvvLIB89tTmnvHr2evS5yj348kI6qVK5k3bt2dKUX1Go3WorB9/vSDXruW/eqvINKOUyY/HLS8aIyD5omOt4Pf+jxZ4Ipc6g/OgzIy5FNm1n33/XOtT8qadq/rVv3lTVsfGAwpGIj2AUAAACAGKtcpUpO69ZQy1wFueqa/vJoa9CocaI1r8ZrOk2/ffu2lJenSrQUQ/gSWN+FL2HV87/cNzTXZbq6VDY8X7LSEWEb1q/LXueNQV+O6jVqFqiFMRB3tWpUs507d9rGTVuCITkUvt7zyBjr0bVjonSDSjSEW/eOnzTd9q1axY1TmYdw618FuCrzcGLLZon5tawrbrzHtm3f4Yb7QNlPr/62rVq4fqAotN8J7w+03/FXXmg/cOOf+tuEMaPdOF9yJ7qfef7ZCW4/tPDDD9yVG5P/Pt5uuvaqXMvSvsdPn2ofE55Wr7l161Y3XPtDtTie++Zs63Bi81JveVwSCHYBAAAAIObqN2hkq1eucGGtqAzDIYceZpn1DnAlDN6Z+6YbrvGaTtMXhQ6g771zsN04eGiuS29HPvxArgPgsU+MtK5ndk+M1wH4+DFP2NhnX3LDdAmt+n0QHaYWX0e3OM66nd7eHXSHQ2OgIlP4umL1V0FfjgF/PN91Xrs2x1n7tjknP9T6V2Ht2nUbXCj8xdIVLujt3LGtGy96rmFZc96z5k0Ps6/Xb3TTiX9scnDRfi9Q8XyyaKF7PO3Xnd2jL62j/ZDfZ7RoebwNuubKRCC7bMkXtvX77924m4YMc/sp7WcuurSvGzbr7QU2c8bLtnHD17ZftWr25xFPuFbBKgOhk326+kThrPjX0D5q4IC+ScNdnWicn72/eu3fH7ppdaJT+yzRiUPts1qf3M69bhxOJBLsAgAAAEDMqc5uterVE61cVy7/0lq1Ptk916MOYnUQ7csYaPqiSNZqVsvSQXCYDroV0Iofr6BXrYslv0toNY0O7nVwLQqNfcuqVDfJAdKZbqSmFrZXDro3aZkFUUhbtUrloC+3lau/ci16m5x4ZqIUg55rmDQ4INNaNj/K5rwz3/XrUS2C9bpAMjpp53+f1am1a/gko9/n+FI6kqysjt9fyVtvZLlyQT4c1n7nj/0HuOfJ6OqU7779JtdraB+lE4iqxRum/eC0Fya75dWoWcsN0+tonxVXBLsAAAAAEHM68FULXbXU1YGr6g/68DYc+qruoVpLafriCF9aq8tVddlqmFpn+RC3qHRg7ltfzf3wc3fgrRAhDpfGAsWxcfM31rhBPRe0RnXr0sGVUPho9kTXf3S7nkkD3mS+XLnGevfo4ko0aBnhTssN1/dd8uUqyjAgpejN09TKVYY/eK/bTySr6a79j/ZDvg5vzVp1rEbNXfsknZjMjOxDNL5W7f2DvtxUaujVf7zk9kXhkFknBaO0H1SZk/Dr6XX0enFFsAsAAAAAaUCtYHVA7FtB+QNpPf5iv2ou9NX44txwRqGxahq2PuawxKW1OpCPttgtaTrwvvbGwS7c9WUlgHSkkgmTp810JRQUtOZFrWgnPHpnIuD1ZRPyc2DDA1wpB5V0yIvKLlTf7xc2972cgI4yDCgM37o23Go3SoGvTj6WFAXEvnRCOGRWd1k+LX3TBcEuAMSUP7DK75JEjfOF4/30vpWL6tX5mnWazheqB1A21LJGLWz8pZDhzt/52vN3udbBHgDkpWmz5rZk8ee2cMEHrmagb+2kR39zNY3XdEXlQ2MdQPsDZrWA0s3OSoJvCZysrm7cW1UBBTFq7CQXvvo6uWH+bwf9XeAVpg6uX2b4ZmuLl620Tj37Jf72UGB8+KGNbeAdD1OGAcUWrf8uqWq96+Sjgt/wsala5arGbjJaTrIbbiaj8gsZGRlueV5JB81ljWAXAGJu9mv/THpJosJcjfOXrOjsKXeSBsqfKWMeyHUp5OwXRttNQ4fnOmjT5ZF333xlvi13AEAHrN9s2WJTpzy3W3irA1/dRVzjfV3BogofQOvEsW5y89knH7v+4lJ4q1q8uoQ2evJaf9t88P671qnLGcEQIN6i9W7V6UZnTz54a9JAVcNuv76PjRzzXGJ6/c2gYQUJYDXN8GEDXYjr52931mV216ArXIjr+fILlGFAYSkknfbiZOt6Vnd3/OlLAk2cMNY9in/ux0W1OaW9C35f++fLrl/7mcfzuYmmv+Fm+IaceTWC0jpp3bQ8vx/T62j/6KlMg8o1FCQoLg8IdgEg5lqd1Na1zInS5ZYaByBeDj2ooTvA0kGbWtEAQEH5uoU6wK13QINgaA5/A7Pi1tfVCWLdqbzb6e0T9XUvuOTyEi2RoNdQi2Dd4CZcL1EB8rA/D7cDD84JA3RiWwfuOoAH4sbXyo120RO5CmNVcsEHr/o7YcbERxPT67mGSbITwdFhfnnh1wyHul67NsdRhgEpRW+epjI9ukKk8xnd3Hjtb/484gnXItZPo5t5Dn3gkTz3RRp+/c1DbOwTI9302s907NQ5zxq7vlSPuNcP5lGA69cjTMM07rTWLdy0uppF+zVP+88GjRq7/Vx+V8eWFxk7FUMDAPLV5tKnbeL959nee5Wf82E6iBl0zZXuYOrtOW/YWT3OTRzoaJwK1qvFy2PDH7SBt9zuWudoetU80gGTv8RRl1Fqh6UdmnaI2jHqTOf9w4YkzlzqQNDvfNVaZtQjf7ZmzVvYA8Nudwdyfr49afSkd+2IRtWt56+OCoYA+Tv18nH2yq3NrMo+e+Z7rcspr7jxHhvwx/N3O6BSyYXb7nvM1dfTAZla7749b6Hddt3l7sBM/bojtvfI0OvddH6ZF/XsamMnTrPZb72fa7ynljrdLr4m6Ns1XsPV8mfkvYMSB4kKl2+5Z6TdMbBvYlhZ+cs/1li9Bo3tvE67H3AC6ejp6Qtt7ebtduEZxwZDUBZ6XPOMvTbifKu0z17BEKQb/S2fdUfz7L/lM4IhyM9Djz/j6vGG/3YoD556ba39UCnT+pzNb2RxlMdj21T8MegNt95ZrJOTe8rEVxdYpez/7tLYdmmxCwAxV7VKVTv8yKNcC11P9e8yM+u6y0gKS6Hwn/pfmlOLLyg6rzOaCoV9i5iliz+3rd9/78bdNGTYHg91gXSj8LZeZm139+ooha+Tps10N0tRKxuVbnhu6r9yte5VqKtLLTVepR7CrX8VCuuAzc+vRy1Pw9UyZ/86tWzBos/dtKLned2ZGwAApA9fb1flIDp35Mo/7BlqdBS+GkONjlRm4ZBDD4tlqFvaCHYBIA2ojp5q2/maQroUslXrk93zwlIoXL9hIzvt152DIeaea9hbb2QFQ6zIywdQPCtX5765g1rRPjPyrlytaXt07ZiotefD2o2bv3EtgdXyV62E/Xg9ql/hrqj1sKbRtH76VHfmBgAA8ae/JVTagbr+2JNUKkFlg1ROQaUSVF5BjZb8DTuRG8EuAKQBX0dv7ZpV7symahjlVYw+ldWrVrgSDL4+kd+ZhgvKq75RUVoDAyg+f0fro9v1dDc9Cd9kzWtYP/ld47dt3+HutK0yDP6mKerCZRl0o5R5Cz62VWvWuW75qrXWvOlhwVgAAACgdCnE9VePqiPUzRvBLgCkAZVC8OUYfBmGol6msnL5l65u7twPP8+1M1WXrPg8gJKnlrK6DDLZ3ajDNz1RbVzV2s0r4I3auGmLfb1+oyvPoPnDnZapZR99VBNr2fwoV4KBMgwAAABA+UWwCwBpwpdjyJo5o1hlEho2PtBWr1xh27dvC4YAKGsfffyFa1mb6m7UuqmJD3hVMmHHjv8GY5KrVbO6K8sQLecQpksvVXph0WdLKMMAAAAAlGMEuwCQJmrUrGWffbLIdUUtwyBtTmnvHidOGOseRXch/d2ZnezDee8FQwCUFt245Kahw3PVyQ1Ty9xe/W62TVu+df3hOriVUwSwWp6WG76Zmuhmajfc+Yhblqj0wuy33nclGSjDAJSdnTt3Bs8AAABSI9gFgDSh0gsqMq+uOHcL1bxDH3jE5s97L1Fjt9vp7e3GwUPtmOxlAyhZ0Xq37c66zO4adIVrjZuMhusGZ77GbpMTz7R6mbXznD5K0/W9+Bz3Ov41VfbhtusuT7TMVekFlWNQRxkGAAAAoHzK2MlpYQBIqc2lT9vE+8+zvffifFh5NXrSu3ZEo+rW81dHBUOA/J16+Th75dZmVmUfvtdRarl7232PuVbABQ2MS8Nf/rHG6jVobOd1ahoMAdLb2H98ZF9t2WEXnnFsMARlocc1z9hrI863SvvsFQxButHf8ll3NM/+Wz4jGII4euq1tfZDpUzrcza/kcXBsW3ZmzjjI6uUsbNUtl0+RQAAAOSyas06++bb7619W1rpAwAAAOUVwS4AAAASVG9XZRp+f95vk9b4BQAAAFA+EOwCAAAgYcAfz7eV8192dXwBAAAAlF8EuwAAAAAAAAAQMwS7AAAAAAAAABAzBLsAAAAAAAAAEDMEuwAAAAAAAAAQMwS7AAAAAAAAJezd+Yvshjsfse07/hsMKZwp02cVa/4oLec/ny4J+gpv05ZvrVe/m937kocef8atI4A9h2AXAAAAAOB8OO89639Jb9uyeVMwpPTptfSaem0gXSgEfepvL9llvbtZlcqVgqF7jkLd2+57zD5b/GUwpPguOvcM++fst23xspXBEGB3+m1veUSj3bq7Bt9oO7ZvD6ZCURHsAgAAAAAAlKCsOe/Z4Yc2tkMPahgMST81q+9nv253ok2d8XowBEiu9cntbNbbC2zepytcN/fDz93w+4cNse3bt7nnKBqCXQAAAAAAgBKi1rqTps20tq1aBENyWsyqrELDFp0TncoaaFpPZQ3C49Zv3ByMyaGWsZ169ktMo1IInsad3/cmmzD55cR4TavhvrXu+EnT7cpB9+Yq76BlRKf3fOkFP37S1H8FY3Zp3/Z4+2zxclrtolAqV6liXc/sbqtXrrDt2wh2i4NgFwAAAABQIC9PnbLb5bPhYV8uXWz9/tDLsmbOsN+d2SlxyW24zIIvveDHTXthUjAGSA9fLF3hHpsc3Mg9yqixk6xeZm1bOf9l1300e6IbPvbZqe5RdWtHjnnOZr8w2o0f8Mfzbcj9j7txovHtzrrM7hp0RWJ+DQuHu+s3bLLpM+e4cZqm78Xn2K33jrJt23fYbdddbr17dLFHhl5vd998pZteAa/4ddKy+14/NBEG3/PIGDuhRVM37ou3X3TDZ7/1vpvHq1qlslXb7+e2YFFOC0ygqEaPeMgmjBmd2D/4/Ua0lIP2ORLdH+lR/X68aF4tb8WXS92j9k3h/U942rgi2AUAAAAAlJiNG762Oa/PsrHPvuQuub3r/oft8ewDdgW6OvAe/uC91qLl8YnLcZctXWJz35wdzA3E38rVX1mj+nVd6OkpqFXnqYyBQlNRiDp52kwXxPrSDRp3bb8L3HOZ88581+/n0fxansLdcKtfDdM46dyxrVsPlYWIWrVmnX3z7feuTq6nZXf51cmutMJHH39hK7Lfhx+vOsGqF9z08INdv6fhCqy/XLkmGAKkpn3BtBcn2x/7D7AaNWsFQ82mTnnOrr95iNs/HJO9n1DwOmzIIJvySpYbpsexT4x0w5s2a26rViy3tWtWuXn1+NH8923l8l11pN+Z+6bb31SrXsP1P/fM0zb0gUfcsp762xS3LJ2QjDOCXQAAAABAidIltrrUVnTwvXPnTtu8aaN9smihu/S2Z6+L3DhN0/viS+3wI49y/UC6C5dbuP/RcW6YWtQqRG1Yv67r9w5seIB7VPC7dt2GRL+nFsHV9/uFbdy0xfXXqV3TatWo5p5LfqHrxs3f2Euvzraj2/VMrE94nZKF07VqVrf96+wK4Tytl9bPl3cAonTyrsOJzRMtZVsfc5hN/vt4W70qp3W7d3SL46zeAQ3cc4W/8957xy66tK8dePChbpge1a/hNWvVtgaNGtuihQvcOD2e0e0cW7fuK3ciUd38ee9Zq9Ynu/HS9azuVr1GTff8oEMOtdp1MrP3TWV3s9DSQLALAAAAACgxtWrvbzVq5hw4R+kgvn7DRlalStVgiLnWWjq4BtKZr2U7adrMRKmEcIvcolCgu/mbXa11C0PBbbs2xyXWJdyFWxYDJSF68zR1uprjpmuvsvnvvxtMZZaZWTdxUlA3VdOJwPoNdpU0EZ0s/O7bb9wJw5bHt0q00NXjoYcf6Z4vW7LYnUysVr26C3C96LLSAcEuAAAAAABAKVGpBJVMmDLmAZvw6J2uVIJvhStqFavWsQpbw3xL27xa3qrVbUZGhmtJK6qxq2FeXi19Ra2Dv16/MdHaN0rj1YpYrYk9Tat5orReWj+tJ1BQp/26s3X/XW9bs7pwN95TC9tvtuRstwpq1Sp3+bIlrqXuUU2bubBXJxHVgveQQw9LtNBNVwS7AFDGVMPnxj/1d5eGhKlOkL80RTcbidb6UX9eNyGRVOOLIrrM6M1SREXu/XgVoo++L0/vT9NGpXrfQBzp5iL9Bt6dq+ad6KAufLmj+sM0X/hu19HxOkAL31E7fMOUvESXGb4Tthe+I3b0Dt1hunw02WuG31f0jtoA0l+4nmEqOgh3d0Hfvusu6GpVtWH9uqAPiL/mTQ9z9WvDoaiEg1vdTG38pOnuuQLR7l07upun+X2o9q2+LIK0bdXC9fu/DbSv1j5ZdXF9TV3RML8ff3nmHBfOtm97/G7h8NFHNbGWzY+y0eOnJP4u0Hz6O0D7e41X2Oxv7qZpNO2iz5a6fi+/8BgoDl3ZoSs8ouUawld++Na4r/7jJdfaVyGuWvSqVMPrs/5lDRsf6ManM4JdAChDCi0HDuibOMPoKdxU4XZfFP6eh0baPXfcmgg5/Xw3Dh7qxmu6x4Y/WODxRRFdpjrtLO8fNiQR7mq9dYbUX1ajwvS6IUo0/NV0uswmKtX7BuJIB2S6o/SWb78LhuTQgVi3i69xrXV0maMufdTBlz9A8/P5u13rrtgPPjYhcYCnA6fb7nvMHZRpvO5OrQMpHXzlJbpMdZpfy/EHcZpf6+AvxdQBou6C7cd7mu7KQfcGfbto3puGDk/cxVuvpTtw5xUOA4g3BbOqi6hauaJ99swZOeFUQRzZtJk7IJ84Yazr198M48c8YZ998rHrB9JBgwMyrdp+P7cvluYEUgpeb7++jwtu/YlQeWTo9W4/qn2m9r/ah7Y76zI3Xn8jDL72j2460Xjta7XP1XjVxtWwcNkE1djt0rFtom7upGkzbfiwgYng14fDCm8VOt923eVueJMTz0wss0fXjtatSwcXBGu8/tbQOE2jG7upfEOYbsK2fNVaF2YDheFrrqtMQzIqyaDWt+EbnOlR/Rqu8QpydQw68uEHEiGuyvtouUsXf+5C3nRHsAsAZUQhZrfT29tBhzQJhuTIqyj8Gd162IzpOWfIdRlJx05d3J1BReOPPe6EXIXi8xtfFJpXxet1AOZ16nJG4s6japk77YWcO5n6y1t0IxTtRP3Bnt6bWvlq53tS21PdMK8g7xuIG4WfOiA79KDd63fldTdr3QVbIeqCRZ+7O1H78Tp4anXsL91wid692rfueXvewt1CWE/zqjWOWt14Z3Q61R2AaXk6kNRBX/gO2lq+WvfobtiiZauVrw5GT23d0g0L0/sK38Xbt/DxB7MA4id6kxvf6Wog/a2huoi/P6+bG6ZQtuf5OTdCKwgdiF9742B3yazm1w10Djr4kDwP7IE40j76xJbN3D7S035yxsRHEydate9VgOpLM4j+BvDjNfyy3t3s7puvdMuTZMuIOum4o3Mtwy9b/PL9cC1Xy/fTq9M6edHxWh/N6/9WEf2tob9X/N8BQDLJ9iuPj3jIhj7wiAti89L5jG6uoZGOozWPHnX8qOGebo6mG3D6ENeHveEbsaUzgl0AKAMKQXUpiFqmnnfBH4KhOfIqCq9+HfQoANWO67L+A4Ixu/hLH1ONLwot86YhwxLF66N02aQK1odvjuJ3ov5yGR/wjn32JRc0hxXkfQNxopD0n7Pfdq1p/nD+mcHQHApHk12mqDtX+0s1dSCV7ADNXzKpA6ZH77kh1wGaROvfhWmZ4QPCKNXK0/c4fAdtLd8d+AWXi/qA96VxD7kDtyh/YBoVrRMIIB4U3PordaKdP4GsvxH8MP2tcPa5vRJ/M+gk7aN/nZA4aSvRYZpO0/tl9Lr4Mhvx5PjE8oF0oPIHny1enrjyJh35v3100hjIS177Ff3u+wZCouPZZMe00fnDoa5o/N9fnJFrv6PlhI9l9TrR/UyyYXFEsAsAZUA7jWF/HpFrZ+PlVztIwWe4Bp2nFjO67FEtaJNJNb6o1IpXN2jQWVUVrffPo3ygrJ1kXuFwUd43UJ4pEFXwmqzFioLVcF07Tzc4+WLp8qQ3LtGlmdP/9WaeB0s6mNJlmrpkMhr25kcta/yNVqI3XQnz66qQN79wOCpczw8AgIpK++bfn/fbXDVs043q7/663Ym01gX2IIJdANjDFHpGawf5MgdRGq8bjOnyR5VeiAbFqcYXh8Ji1ckNl14ojsK8byAdRG96ooM8lWGIUsse3YBM9XhVmiF6sORLI6gOnhQmQNVrq05uuPRCSdGyVYNPyy9s2AwAQDoq7MnR4tDfC8+MvKtMQ9a8rtoBUHYIdgGgHNDlJKoV5GsHDbrmSjvn/AuDsbsoqNVlJroERVS/NlyyINX4olKoq7BYNfVK8lKVgr5vIB3o4E43TlNgqwD0txcMsNNOPsHd6CRMB2S+fp4oxA239AnXu9MB1bmXDSzQZZ4KXvXaulFLuDZeSXHlG7LXSTd1U91ftSYGAAAAUHoIdgGgnAjXq1Otn21bv3elClSyIJnwjcySyW/86BEPJYrWq1Nwm5dwqBuuZ6TauqrNqVq7Uf6OpAVR2PcNxJkPP9UpvK1Zo1qepRAkfKOzZHSjMt0cTeUVFKQqMPadbxks4VA33LJGtXX1PU5WCiJaD7igFDzrpm56TZWLAAAAAFA6CHYBoBxQ0KrOUyvbee+940oVqGRBdHxUqvFRKibvw1R1ebXC9aHuU3+bkivUFdXWVSClWrueSinMz54nekO0vETXO/q+gXQyZfqs3Vrf6m7ZCntVtkDBbH6tXBWU9up3c55hqVrv+tBYnW+V60Nd11o4crmkAmV9j1Vr19PyNU/D+nWDIXnzZSH03gAAAACULYJdACgHWrU+2d3szNeafe2fL7sbiLU5pb3r1/iRDz+QaFmrAHT8mCfs2ONOcOUXUo0vCq3LsCGDXKibLPhVnd2uZ3W3x0c85AJdmThhrGtte2TTZq4/lVTvG0gnzZseZvMWfGwfffyF61d4Gr45WrIavLrhSqtjf+nKMzQ5OOeEiW5U4qW6UZlKNNw0dLgLdZOVX1CgrHq4CpR9YKzlN6pf17UGTkWtc09s2cxGjnkuUQ6iqDd1AwAAAFA4BLsAUA4oOA3XmtUNxIY+8EjiJmUar4BVrWc1vvUxh1lmZl3X8rYg44tixvSp9tknHyeWGe58gKxWvC2yX7vDic3dcLXWveLq6wvc2jbV+wbSicLZuwZdkaixq8B15L2DEjc5UfAarsHb5MQzrV5mbdcSVxSSDh82MKc1bVBuYdK0mW5YXgHq1Bmv26LPliaWGe58gKxWvHpt3YzNDx945cUFvtGL5u978TnW7qzL3PxajkJdbqYCAAAAlK6MnSqsBgDIV5tLn7aJ959ne+/F+bDyavSkd+2IRtWt56+OCoYA+Tv18nH2yq3NrMo+fK/Lq7/8Y43Va9DYzutU8jd7A8qjsf/4yL7assMuPOPYYAjKQo9rnrHXRpxvlfbZKxiCdKO/5bPuaJ79t3xGMARx9NRra+2HSpnW52x+I4uDY9uyN3HGR1YpY2epbLt8igAAAAAAAAAQMwS7AAAAAAAAABAzBLsAAAAAAAAAEDMEuwAAAAAAAAAQMwS7AAAAAAAAABAzBLsAAAAAAAAAEDMEuwAAAAAAAAAQMxk7swXPAQB5aHPp03Z5jxOCPpRHy9dssSMaVbeevzoqGALk79TLx9mArvWDPpRHX67/weo1aGzndWoaDAHS29h/fGRfbdlhF55xbDAEZaHHNc/YayPOt0r77BUMQbrR3/JZdzS3vffKCIaUrocef8YObHiAdevSIRhitn3Hf+22+x6z8ZOmu/7ePbrYbdddblUqV3L9ovnuf3Sce55s/OJlK63v9UNt0WdLXf8jQ6/P9Rr50bwPjBxvdw3qbzWr7xcMNZsyfZZdOehe97zp4QfbyHsH2aEHNXT98u78Rdbt4muCvuzpxzxgJ7TYtV+Ovq9r+11gA/54vnte0p56ba39UCnT+pzNb2Rx6Psw8f7zsr8PtPUsKxNnfGSVMnaWyrZLsAsABTB07NzgWXp44u4rbOkn8+zSG4bbwUe2DIbGX5MGNQh2UWDDxswJnqWHJ+650pZ88oFdOvARO+TI9DngOah+TYJdVBhFDXZHj3jIGjY+0Dqf0S0YYrZl8yYbdM2VNvfN2a6/71XX2GX9B7jnEh3f+uR2NvSBR6x6jZquX7TckQ8/4J4nG18cXy5dbKMe+bPdcOuduZb54bz37Pfn7XofT/1tih3T8vigL//39fLUKXbTtVe551F33f9wrv+fMILd9FeWwa4PZ8Ohqw8/xYe1ClTfnrcw0a/51q7bkKtffEjqA1YfrPqQ965BV+QKWpPx0+5fp5YNHzYwEexqHUaOeS4R5mq6W+4ZaXcM7Ov6o6+5acu3dsWN97h1Ur9/X/Uya7thvv/Els0KHDgXBsFuyShKsJvXb3b4d/fwI4+yex4aaQcefKjrl+jvcvS3WMu94ep+9unHi1x/fr/VRZFs/7hj+3a7f9gQm/z38a6/++9627U3DrbKVaq4fsnrfUX3QWH57ScJdgEAJapDhw6WlZVls2bNsvbt2wdDAcQZ32sg/ooS7PrwNXww7A88W7Q8PhF6ajpRvx/f9azuiXl0EDvthcmJg9Jov+Zft+6r3Q5+i0IH8gMH9LXadTJzHQT7UNeHuX49/5i9zur38110aV+33sneR1T0fSRDsJv+yiLY9aHn1+s3Wp3aNe2cM36VCDejgan4ELR7147W5OBGdtPQEXZN396J8eEWtlWrVM4VoHrR8DcZ3yL3jE6n2jfffZ8IdvMKYTX9lyvXuGUmW77C3snTZroAetWadYl19GFxeHy4tXFJINgtGYUNdvP6zdbv69gnRiZCT013zx232sBbbnf90d/f6G92tN+/zo2Dh+Y6oVdUyfaPPtSVa2681apUqerWc9577yT2b5pvfvb+yK93qv1IQfZFpRns0u4aAAAAAGJGB5L9L+ltM2dMt5PanhoMzbFsyWL32LPXRe5R9HzJ4s/dgbMf3+aUXSeB/HON04GvDnJ1kOoPYjX/6pUr7JNFC11/UekAudvp7e2gQ5oEQ3Z5Z+6brgWuP6DXayvUnfbiZLdOM6ZPtaNbHGen/bpzYrzWUeuq8VF6rwodtIxkB+NAScqa855rxfrSuIescYN6wdAcGzd/YxkZGVarZvVgiLnQU0HtytVfuVD00XtuyFUCQTZ/861t3LTFtm3fYSuyp2vbqkUwJocC1/xCXYXN/5z9ts1+YbT94fwzg6E5/DIb1q8bDMmhfrUc3vzNd+5RJSXCatWoZt98+72bX+ur9Q6XdhAtV+MRf3n9Zvv9hE60+Ra6ejyjWw/3W51sPxL9zfb7IrV0Fc2v5fnf/KLKb/+4ds0qW7ViufW++FIX6orfp2j/pv2G5gvvN8L7x2QmThhr9Rs2SiynrBHsAgAAAEDMvPVGlmuRO/bZl6xBo8bB0ByrV61wB5n+oFX0/Bf7VbPNmza54HTEk+PLPOzUwfbrs/5lU17JsvMu+EMwNIcO4tUiWJfMhtWoWdO++/Yb27Jlsxvf8vhWuVoMq3XUTUOG7daKWMsbP+YJ69ipS4m0/AJSUavXvEJWhaG6WFohracWswpO1To2SuNGj59irY79pQtPNZ+/2LpXv5utYYvOrlPr2vzkFRiLWgE3ql/XBcth6lcwq9dT8BxdP4XUXyxdnuu9eAqS1cq3R9eOu4W9iJ/8frO3b9/mTvbVb9AoGJJD/fqtFv0259WCtTTlt3/UPlAnWWrUrBUMMbf/yMys6/adGq+WyQcdsquchPaV2mcm25foShMFwQqKi3s1S1ER7AIAAABAzOhgOVwzN0wH1jrg1oG35w/CdeCajFoibVi/zgWpOjhVgKpLT3VgLzpQlvDBbmHp4HjYn0ckWneF+QPrlcu/DIbk0EH20sWf27q1a9z616xdx+4afKO1PKKR63yJiSi1vPpo/vvWqcsZwRBgz2lwQKZrxauwVqGtfPTxF4kbjoUpGG1y4pk2b8HHrnyCt37DJjdOpRRWzn/ZtcJVfdxU4W5e1GJYZRi0DJV9EAWzk6bNdM9FLYRVL1jlFUTrrjILURp+w52P2NHterr+9m05mZIO8vvN1slCnUCM7lPUH93/eL4Vr37r9Zvv9ye+Xq32N9rvRE/gFVZ++0ft43TSYvOmjcGQXScWtf/xJ0Y/zt6H+P3M787s5FryRmk+tS7WCcRk/0dlhWAXAAAAANKIP1jW5aGegtlkN3sRHbAOGzIo1yW1OjDWJbMdTmzuDmx1MP7nEU+UaivfVq1PdvUQ1QJK/EFz2EP33OFaRs37dIXNenuBq4OYLNxVWYc9fbANeApRVXNWFNqqte2cd+bbtf0ucMPC1OpXwa1uaKYbnvlQVXV7b7++T6IlrFrh9r34HBfEKpAtCrUy1jLanXWZWyfVCL6oZ9dgrLnSErpxmm6gpvG/vWCAnXbyCW5dwvT+7r75SrfeWv9zLxuYCIuRnvwJQJW78aGnD2bz8vSTo1zo68sEaX+iurXTXnze7We0v1EJhNJs5VvvgAauFa+u6PDhs04E+hupiZ5/9MH7bj+jTvtG1f6Nhru+rMOePoFIsAsAAAAAacQfLCv09C2Otm3d6u78HaUDVR2wKgT1B9MKVNUqVq2X/IFt1zO7W+tjDkuErqVBl7nqxmm6gZrW+aJzf2ttT+1gtWrvH0xh7qY6PqzV+1QIoMtgwwfcChf03hUUA+VFOPxU1+eiHklr2HoKbrv86mQXAOfF18ddtmK1derZL1GiQa1nfcvgVBTu+nWa8Oid9v3Wba5Eg0o1iMJdP37GxEetZo1qu9ULDjv6qCbWsvlRtmDR58EQpCvtMxR6qgavfrN1A7Fzzr8wGJubTsDpt/r6m4ckThBqf3L5RefadYMGu/3M3A8/dyfztP/Rfqg0KJDWTdKkzTGHu/X29d097SsvvKRP0JdTg1f13VU7OGzRwgUuJFZYvCcR7AIAAABAmtGBs2oC+mC242+6uJZS4XqI4VA3fNmqWi+FW1WJQlcd+OoAOErL0aWqPkQuzkG5Xsev899fnGE1a9ZyIVL1GjWCKXLTZbXh4Ff8DW6KUzYCKElqUavauL71raxas86Wr1przZse5lq3nt/3pjxbufpSDqpvG6Z6uAphjzrsYBe6+gBWAbKC5FRU2kGdpzD47XkLXYkGza8yD9GQWEGzwl61HNb70fsqaothxJ/CXf+brX3Otq3f71bj3Ye69zw0MnFizl+RoWDY35hNoauuyFArWLWGjdJy/H5GXVFPNOp1VP/Xr7dC3GQ13j1Nn5mZ+yaDWn9dyVLcshElgWAXAAAAANKIgtZ+f+iVqxVrNOz0oa4OqvOqRVhQOlBXCOsPkpPdzKwgdPf1aCisIFk3wWl04MHuMVrPMdmNcHyNxHCwAOxJCkEVhqo+rUJSdeGboyWrwavQdPq/3nR1dhWydu/a0YWwPkRVCKz6uD6ELQrV0NVr+ED55Zlz3I3TfI1chc6q9at6wBJeJ2lycM6JorHP7mrJGF0G0peC1nApnGRhp8brCorHxj5b7NI42lf5/Yy6otwYU1d09L+kd65Q2JdUaNqsuet0w85wjWC9r2jw6+vWR28etycQ7AIAAABAGvE1BP1lozqQfTz74Fo1c9WSV/333jnYhbrJahke2bSZC0bDNXp1EKz6t6VZ3kAH1LrhmVoMi15Trbx8/UI9Tp0yKRFY+/elwNdf2isqIaHWVXu6FRUQptILohq76upl1nb1aEXBbLQG701Dh7s6uwp+RcGwptcNyjRedXFVH1elFIpKywzX2FW9Xt2cLVzH965BVyRq7EbXSdNpegW+Gp9sGUhf2h+ES+G89s+XXdjZ5pT2rl8n6xTqqjRQ+Dda9PusEj+q0btsSc6JAwWoqn1bmuUNtB7aZ6i1sMJZ/5rHHneCC57VHXLoYbn2f3pf2jdpH+Xp5mu6CZuuGtnTCHYBAAAAII3ogPmKq69P1NjVDWkU6voQ199I7aZrr8p1Was6HYhrftUgVAslP1w3V5vySlaRWkgVlA6oVUPX19jVa4Yv3dXjwFtudy2NNV7vSwfo4RbHyVpWAWVJIa1KIUQDVz/cl0vwoa4XHa/SCj5A9cL1btUVJtTVvKqhGw1cozV2o+PDr5lsnTS95stvGUhP2h+Ea+zqxmk+xNWJN/VrX+Nvwuk7tZjVeM2v3/zuXU5zw1XHPTOzbpGv+igoXz9XNXb9a4b3I/65X1+Fz+F9kSS7WmRPydipiBkAUKF06NDBsrKybNasWda+fc4ZVQDxxvcaiL+x//jIvtqywy4849hgCMpCj2uesddGnG+V9tkrGIJ00+bSpy3rjua2914ZwRDE0VOvrbUfKmVan7P5jSwOfR8m3n9e9veBtp5lZeKMj6xSxs5S2Xb5FAEAAAAAAAAgZgh2AQAAAAAAACBmCHYBAAAAAAAAIGYIdgEAAAAAAAAgZgh2AQAAAAAAACBmCHYBAAAAAAAAIGYydmYLngMAKogOHTpYVlaWzZo1y9q3bx8MBRBnfK+B+Bv7j4/sqy07rG6tnwdDUBZGP/+evTbifKu0z17BEKSbNpc+bdee2SDoQ1xt+v5H+6FSpvU5+9hgCIpC34fLe5wQ9KEsbPl+h1XK2Fkq2y7BLgBUQARAQPrhew3En4LdVeu/C/riY+kn8+yJu6+wg49saZfeMDwYGi/Xnt+KYDeNDRszJ3hWup6450pb8skHdunAR+yQIytG+Kj3q/et96v3XdpqVtuXYLeYho6dGzyLF+1ntL/Rfkb7m7iptV8Vgl0AQMkgAALSD99rAHuKfnv0G6TfHv0GARVVRdwX8/1HWeFv3eSosQsAAAAAAAAAMUOwCwAAAAAAAAAxQ7ALAAAAAAAAADFDsAsAAAAAAAAAMUOwCwBAmpowYYLdcccdQd8uGp6RkeG6Fi1a2KeffhqMMdu2bZv16dMnMd53micZDdf0mg8AAAAAUHYIdgEASEMKXHv37h307aLh9913n33yySe2c+dOe/bZZ+2qq65KhLtbt261ZcuW2ZtvvunG+65Xr15ufJjm0bIAAAAAAGWPYBcAgDTiW9wqcO3UqVMwNIfGvfHGG3bdddfZEUcc4Ybp8cILL7SJEye6/vXr17sgt06dOq4/L1rWgw8+aEceeWQwBAAAAABQlgh2AQAoJ9QC9je/+Y09/vjjiRIIp59+um3YsMGVVPDDkpVX8ObNm+ce586dayeffLJ77vnWuAcddFAwJIf6V61a5cJaBbt6jVTB7v33328NGjSwM844IxgCAAAAAChLBLsAAJQjX331lQtnFcKqU+iqkPW0005zLWlVQmHy5Mk2Z86cYI7c2rZta6NGjbKqVasGQ3bZd9993fIU7oapX50Pfl999VX3mj5IjtbX1Wur69evXzAEAAAAAFDWCHYBAChnLrjgAhfMqjvllFPs8ssvt5YtW7pxClzr1avnnheWX57KNPiaumoNPG7cOPdclixZ4loN+5IMetR4H+761sO33HKL1a5d2w0DAAAAAJQ9gl0AAMqRunXrpiyDUBy6CZpq7Ko2rlrjqr9v377BWHOB7SuvvJIIbfWooFnhrkLdRx991LUKVgcAAAAA2HMIdgEAqGAU5qo1rjqFuN99950r0aBSDcn4mrwbN250JRhuvfXWRJmG3r1722OPPWatW7dOtAIGAAAAAJQ+gl0AACoQlVEI33xNN0x74403XIkG6dOnz241df0N1xo2bOiCYB8Kqxs/frwrFaGbtR1xxBHBHAAAAACA0kawCwBABaKbsOnma7517fPPP++C29NPPz1Rg9eXXRBNp5q8vu4vAAAAAKB8INgFACDGoi1wU1Ft3HCNXX9jNF9TV2UaFOKqzq/Ga7oRI0ZQUxcAAAAAyhmCXQAAygmVMnj11VdzlTRQ0Dpq1KhEa1kFsCqH4INW3exMXTJ5jYvW2PWhrhcery6/UDe6fgAAAACAskGwCwAAAAAAAAAxQ7ALAAAAAAAAADFDsAsAAAAAAAAAMUOwCwAAAAAAAAAxQ7ALAAAAAAAAADFDsAsAAAAAAAAAMUOwCwAAAAAAAAAxQ7ALAAAAAEAa+PTTT+03v/mNewRQ/k2YMMHuuOOOoG8XDc/IyHBdixYtcn2nt23bZn369EmM953m8ebMmZNrnPqRngh2AQAAAAAAgDKkILZ3795B3y4aft9999knn3xiO3futGeffdauuuqqRLi7detWW7Zsmb355ptuvO969erlxivEPfnkkxPj169f78Jjwt30RLALAAAAAAAAlAHf4lbhbadOnYKhOTROgex1111nRxxxhBumxwsvvNAmTpzo+hXUKrCtU6eO64967bXX7Pbbb7e2bdu6/tq1a9stt9xi48aNc8tHeiHYBQAAAACgkDZs2GCnn366Pf744+5SaV3u7C+ZDl9GrQCnoGGK5otOHx7mn+s1/fK1DlqXZLQuWqfwNGq55+eNXuKtcb7z0/jXVmu/6Gv5aT0tS6Ug3n77bTftiy++6B79srT+QJz479z111+f2I61zfvvvx9WmNaw8+bNc49z5851LWvDfGvcgw46KBiSQ/2rVq1y30UFu3rNZMGuxmu6Qw45JBiSQ9Nu2bLFLR/phWAXAAAAAIAiev75523mzJmuBV337t3tyCOPdMP9JdAKaTRNSXnsscfs5z//uVu+QhoFPo8++mgwdheFrOeee65r+ffKK6/Yvvvu6wIqhT6aT/NrnKYJh7u33nqrnXbaabutv39fujxcFGwpzPJhk7z33nt28MEHW8OGDV3/yJEjXTCmZakVoloohl8LiAN954455hi3HWv7nzx5sit74Lft8ePHJ8LeglBL2lGjRlnVqlWDIbvoe6rvtL53YepX54PfV1991YW1Plj2J020zAYNGtiSJUtcv6fv8scff+wekV4IdgGgAuvQoUPijwE6Orp4d1lZWcE3GwBQli644AJ3qbMoEFWLVbXkEx/SlKTw8hXinHLKKbnCVVH45ENdX3dz+fLltnTpUrv66qsTgdLZZ59tJ510kgtkvcsvv9xatmzpnut9KYRSSOSf6zJv0Ws0b97cqlWr5pat13/jjTfc+lSpUsVNE/6/UTBcr149giXETvg717hxY/edCW/bJfkd13dTrXjDJ0EUGKuMgqfvo9ZJ3yV/Akbjfbir3yGdoPGtiPXdDM+P9EKwCwAAAABAEZV0cJuKXk+BcV6++uorO+uss+zDDz/MtW4Kf3QiMHz5tg+Gw6371NrPB79RCox8iKxWg2rFuN9++7lgWC0Jdan38ccfH0xd9v83QGlI9Z0raToZo5MyOhmi76z6+/btG4w1Vy9XrfB9sKxHBc0Kb/U91wkYtZBXQKz5W7dubZ07d7a6deu66ZFeCHYBoAKaNWuWO7tLl/7d3nvv7T7z/v37Jx1Pl35d+/bt3WcOAKi4dGl4QS8Pj16ynR+Fwmr1q5aECo4V4irs1TLUgrd69equRSOA4lGY6/+2U4j73Xff5RswR0+iKNz188+fPz9RtiF8YgfpgWAXAAAAAIByqjDBq6hVngJXf+m4r7+rQEchT7gUglreJrvRUl4U2qqG7jPPPJPoV6tCLUOtBfNr7QugYKI3JQyXORHVyvZlFzy1oPfBr8b5mx56KqGisNe38kX6INgFAAAAAKAcUDCjGzX5u+arZaxu1FQUCnB0ybavtelD2QcffDAR+OimaP/+979zlU/Ijy/doPqfKsGgft+CUOut1rsAikffI33vfY1dfU8V3Opkjf8O6kSKb42v6fSdVDkGfR/1fdb32v+O6Puv5fXs2dP1I70Q7AIAAAAAUAYUsCicyas8glrUqYSCr42pELZfv37B2MLT8m6//XZXkkk3ONOd+NWqVuGPlq8w6Nlnn7UjjjgimCM1hUaqretDXB806WZOar0LVGQ6aZKsRW1h6HsbrrHrb4zmW9uqTINCXF9eQdONGDHCzSf6Pqvf/47o+1/Y7zniI2OnrsUAAABpaZ999rEff/zR/UE3fPjwYCgAACUnKyvLOnTo4Gp8q44/UFHpe6Dvg74HFaXmPd9/lJWK+P0qCFrsAgAAAAAAAEDMEOwCAAAAAAAAQMwQ7AIAAAAAAABAzBDsAgAAAAAAAEDMEOwCAAAAAAAAQMwQ7AIAAAAAAABAzBDsAgAAAAAAAEDMEOwCAAAAAAAAQMwQ7AIAAAAAAABAzBDsAgAAAAAAAEDMEOwCAAAAAAAAQMwQ7AIAAAAAAABAzBDsAgAAAACKLSsryzIyMujoKmyn70BFxfefrrS7ivz9yg/BLgAAAAAAAADETMbObMFzAACQZvbZZx/78ccfrX///jZ8+PBgKAAAKIoOHTq4VmOzZs2y9u3bB0ORilrbCfEDkKNq1aq2fft227Ztm1WpUiUYChQeLXYBAAAAAAAAIGYIdgEAAAAAAAAgZgh2AQAAAAAAACBmCHYBAAAAAAAAIGYIdgEAAAAAAAAgZgh2AQAAAAAAACBmCHYBAAAAAAAAIGYIdgEAAAAAAAAgZgh2AQAAAAAAACBmCHYBAAAAAAAAIGYIdgEAAAAAAAAgZgh2AQAAAAAAACBmCHYBAAAAAAAAIGYIdgEAAAAAAAAgZgh2AQAAAAAAACBmCHYBAAAAAAAAIGYIdgEAAAAAAAAgZgh2AQAAAAAAACBmCHYBAAAAAAAAIGYIdgEAAAAAAAAgZgh2AQAAAAAAACBmCHYBAAAAAAAAIGYIdgEAAAAAAAAgZgh2AQAAAAAAACBmCHYBAAAAAAAAIGYIdgEAAAAAAAAgZgh2AQAAAAAAACBmCHYBAAAAAAAAIGYIdgEAAAAAAAAgZgh2AQAAAAAAACBmMnZmC54DKAVZWVnWoUOHoA8AAKBiat++vc2aNSvoA+JJf9fr73tty9qmUTAZGRnukfgByFG1alXbvn27bdu2zapUqRIMBQqPFrsAAAAAAAAAEDMEu0AZ0Rl9naGmK5+db0HUrl27pOPpSq7T/7Ho/zzZeLqS7bxk4+jKrmO737Pd4MGD3f+/HpONpyvdjla6AAAApYNgFwAAAAAAAABihmAXAAAAAAAAAGKGYBcAAAAAAAAAYoZgFwAAAAAAAABihmAXAAAAAAAAAGKGYBcAAAAAAAAAYoZgFwAAAAAAAABihmAXAAAAAAAAAGKGYBcAAAAAAAAAYoZgFwAAAAAAAABihmAXAAAAAAAAAGKGYBcAAAAAAAAAYoZgFwAAAAAAAABiJmNntuA5gFKQlZVlHTp0sPbt29usWbOCoShv/OfUrl079xylR9+F2bNnu++DnqN0ZWRkuEd293sW2/2eddttt9mQIUNs8ODB7jnKFn8LIZ1oW9Y2ze954fD3CIpi4eKv7fMVG4O+9HLub46xH/67w5599UPbp1LlYGj6qFf7F9b66AZBH0oTwS5QyjiYiQeC3bJDwFW2OJAqH9ju9yyC3T2Lv4VQVPreltfvLL/nheP/HimP+Bup/FKw++dxb1iTA6oEQ9LHN1tyAut99/2F7b1PJfc8XXy1+Qf7XZfjCXbLCMEuUMo4mIkHgt2yQ8BVtgh2ywe2+z2LYHfP4m8hFBXBbvog2EVR+GB3dL9DrfxuQYi6+qllBLtliBq7AAAAAIByS+Guwrfy1BHqFk6y/8M93QFAOiDYBQAAAAAAAICYIdgFAAAAAAAAgJgh2AUAAAAAAACAmCHYBQAAAAAAAICYIdgFAAAAAAAAgJgh2AUAAAAAAACAmCHYBQAAAAAAAICYIdgFAAAAAAAAgJgh2AUAAAAAAACAmCHYBQAAAAAAAICYIdgFAAAAAAAAgJgh2AUAAAAAAACAmMnYmS14DpSJKVmfBs8qhoXz37Fbr77QmrVoZbc/+HQwNL2t/vpb+2rTVjumSab97GcZwdDyzX9OvzzmBLvjoXHB0PLvg8++co/HHl7XPcbBLQMusP98+K77Puh7ERf6vz68cS37eZV9giHxcHaHI93j87M+cY9xov/zOG3b+Ynrdp+XLd/vsCWrNsfm83l2zHB7duxwO/eiK+zci68IhpZv2v6r/7yyHdKgRjAkvtL1b6EzTjnM9t6LdjKlaciQIXbbbbe5bvDgwcFQoGRkZOQcpxCJlF8LF39tfx73ho3ud6jF46gScvVTy+x3XY631kc3CIagNBHsosw9NW2BLV37XdCHdKSflX/++wvrekId+1nwBxNKx8Ivv7MjG+7LgWUZmPXRJmt/dE3+qCxDL/x7nZ3e9vCgD+XJth0/2MLPvrITjm4YDEFJW/DZGmvWpF5sTpBWNP/K/jvn9cd6s/8tZQS7KE0Eu+UfwW48EeyWLYJdlDkFuxu++9F6/98xwRCko7MGjLfX7zwm+4CHXXBpuuSRz+zME2vZb1vVCYagtPzm9oXW9zf17KwT+b8uCy+8vd7ufn6FvfTwBcEQlCdPPP+uzZm33J66s3swBCWtzx0v2MnHHmS9u7YIhqA8OfvqCQS7ZYBgF6WJYLf8I9iNJ4LdssVfIgAAAAAAAAAQMwS7AAAAAAAAiJ0p02dZp579bPGylcGQ3DRc48dPmm69+t1s785fFIzJ35IvV9mmLd8GfYWn1z2/7015rlcqel8NW3Terbvhzkds+47//v/2zgS+iur8+w+vVkLfVlbDvgkuoKxiUoQWlBZLGgQEkWoUWsQSFgvVgoCKILtgKSBRkT8gQQVBEPJCG6UCgv5BjYgULKvsEFZxAfrv+/rmd+48N3Mnc2/uTXKTu/y++cxnZs6ZLWfOzNzzO895Hmur4p+HRD8UdgkhhBBCCCGEEEJI1NGxXRu5rloV2bFrr5XiC9KR/5tf/VyWzJ0gt7dsauX4B+Lv01MziuWmo1GDOvJ6xkQzLyppvVJk39Z35Oj2dd6pRmJV6T98vFd0LonzkOiGwi4hhBBCCCGEEEIIiToqV/ypEWuXZ60vYGELy9atOTtNPraLBQb27SV1a1WXRUvXWCkk3qGwSwghhBBCCCGEEEKikq6dfyGnz5yTfQePWCkevti9T3J27Db5EH2drhic7g6wjvwe/R6XjR9+Ks073u/dHiIx3CDotjiWCslwgzBo5BSZl7nS5GG73XsO+rhIwBwuIXR/TDNfed3khUJC+WukZ2onc104v9MVQ2HnwbJOmu9074Bj2/dHuZDIhcIuIYQQQgghhBBCCIlKatdMlNbNm8iWbdutFA9YRzrynUCszFj4lmxcNc+4OMAc6yZv4QzpcMdtsmPDUmPtCwEV7g/gBkFdIiB9yKipXnF338HD8t33l0zelKeGyjXX/MikA2zzzLSXZOLoId79cY7pcxf7CM3BUqXStcZNxLnzX1spHnCesUGcB+vtklqa/C82LpMjx0/JuvVbTB7KBaIv0jUf1tAUdyMXCruEEEIIIYQQQgghJCpRK9a17232Wq5C5ISYiXTk21EXDen97vP6psU8e9lcVx+8agnc9/6uZg502W4lDLHUDbiBcPr3bdywrhGPSxKcJzOI88B3b7Mmjc2yurI4dPSEt1yGPfqA13UF5lh3c3VBIgMKu4QQQgghhBBCCCEkaoGAaQ+ipoKrW1CxS5evGCvVOrWqWymBOZq3LfzaVkgob6XkC6LIA9WqVjaWtIGwu3No1qG3cfcQDgo7DyyPnWI30HKBKwq7Kwask8iFwi4hhBBCCCGEEEIIiVogtPZK7WQsTmFZuiJrvVkvTGwtKhBPT+aetdYCg+uBT97Gyd287hzg4qCoFrvnLlyUerVrFHAxgfOkFeM8cO0AX8Vw34B97RMsjtWKl0QWFHYJIYQQQgghhBBCSFTTvOkNcvjYSfn4s3+aOdbdgOUtLHDV2rYwYNkLS1ZYtCqhWP2q9TBEVrg1ACqihgoEZYjWya1vLWB1i/P8kDcv6nmqVK5orJ6DLRcSGVDYJYQQQgghhBBCCCFRDdwuJLW6RX4/bJyrRasCQRTCqN1vrLovQJAwb3CyCxdNHtw8gEVL15g50GXNKwyIqxrsDOdEMLVdew6a9VB4adFyIyh3bNfGSvGlOOdRq2cEkVNfxQDB1FA2KCMSeVDYJYQQQgghhBBCCCFRjwYwcwuaZqdHyp1GxIQPWviRhfsCiL1IhyAMYbhj9wFG6IXgOf8vzxjXC+p3FoHZ5kweGZR7AvjiRaC2DnnHw74458CHe5ogZlu2bbe2Kkjm8rXmuvScmHANuBa38xb1PHbw/9uPoed89s9/CFiepOwo9wO6IQgpRRZk7ZCz3/5H0n7TwkohsUj3YZmyaUILufqqclYKCQf9Z++RbslV5J6kalYKCRd3j98p6XfXkO7JLOvSYNXWMzLl7SOyetZDVgqJJF59+2PZknNYFkzoaaWQkmbgc6ukfasGkpbqHmGblC33Dl8im15Oy/udQzuZcDJu3Dh59tlnzTR27FgrlZCSoVw5TzuFkkjksnP/aXlh8Qcyb1AjYasyehi+4Cvpk9JG2jarbaWQcMJfIoQQQgghhBBCCCGEEBJl0GKXlDq02I0PSsNiF8NiEPU0noeF0GK39KDFbulCi93IJlwWu+vWrJQxTzxmrfmS/tjjMmDwMGst/OBacj7ZJk+MGivlExKs1HwOHdwvU597RkY+PV7qN2xkpZYctNiNbKLNYnflhn9ZS9HF0kVzZOnCOXJ/vyFyf98hVmp00aPjTdZSdPL53lw5cOy8tRZb3HvnzWb+9vtfmnmsUeu6n0ryLbWsteiEFrvRCS12SxcKu6TUKS1hd96LMyVj1gxrTaRnnzSfxllhDTY3QtnnyuXLeY2+A3Jjk6ZWSvEoyvWWJRR2S4eSFnbhEP/Z5182/pz88cSgh7xRVuOJcAu7CG4wZNRUU7bwjxVuEBDh6akZ8tzIdBNoQs+/8cNPI+IeF0XYhdA2cli6jBo7SVq0zg8o8fWF8zL68aHSMi/NLgziPT198jhp3SZJunTtYaUWxCnglfT7HQQSNMGCN1ZKg+sbmf/j0bz/Af8fvnOgNMVOJZzCrtu3zt89DCeFfXejTdjV+r7izUwrJZ8bb24iU2dmBP1/FPYMhFI2ofy+0Xrw0eaNVko+eEbsz324iTZhd/Dz2VK18k+sNVJaHDt1QeaPSbHWohMIu3Pe2CwNq0d++4Pkc+LcvyXtniQKu6RMoLBbulDYJaVOuIVdbdh36pzi0/hDA3h7zicyacZsqVipcliF0mDFglAI5/WGAwq7pUO4LXYRFABRUIMNDBDLxJqw6yTSnqeiCLv+3r2f5737X57zl7x3fyV58pkJ5hsAghWf7NvVqFm7xN/vIJh3vIpaKuyWJaUt7ALcx1fyvuX6HQ83hd2TaBV23eou/tesVSuCKtuS/o0Tyu8bf8+A/vbr+0h6iT6XgYhGYTf1zqbS6qaaVgoJN7sPnJbMrJyYEXZfHljy7zkSPv44/yCFXVJmUNgtXehjl8QUaGxkLny1gKgLHu4/UGrVqSvLliyyUkgsAhFSo3d27j3IWCUqWEaa5mPC9gqWddL8JyfMNlasweQDex4m5zUQEqkcOnpCaiRWjepOEohCiYnV5ejhQ1aKh20fbZbeD/aVi19/LV8d2G+lilw4f94ETqlUuYqVQiKZ48eOWEv5oNO29U11zdSnW2cj8AEIgIP7p8mG9dlmrttARFTwm2Hi2FHePEzYFvu6gWPjHLrtp9v+28qJfu74eUcztz8f0QSEdVjqL3o1w1sHCCGEEELiAQq7JKY4eeKYHDtyWDqndLVS8kGDf8y4yQUE35dmv+BtpKGBh4YeQOPvr89P8jb6sI7JuY3uq9uoJQuGOmJYrX17WBs5t1fQOLWfD5MOs7Xj73qBs9Fp3x95o/40WJYsnOe6b7QDcRUi68ncs7Jv6ztydPs6Se93n6SPmGSEVVhDPjPtJZk4eojJw7Ry4QyZPnexsUpVsN4uqaXJ/2LjMjly/JSsW7/Fyg2cD4tH+/kxb928iczLXOkj/kY7wQjkE2fON/dD81E29v2cgncgQRzzQSOnmHJEnorp8SCio27a/0eUo4JllMWSFeu8+Q8OesrU9WDyUVYPpI+RXXsOmu1QtzHZy9Fexm73DPcEx0S+/TkqS5LatjejM1Scw/zA/r3S8PpGZhi/XRyE4Is0WCg638+Y7O9o8O9/Xyny+x3vXhUYsW1JgOPa3/NYtl+DXegEuCZ7vvP/i2RwH2FRmtq9p7lfKHeUf27uKfno872S868jxloTVpv2//mt118zVqjIx1B9u/D32vyXTEcA8jC9v3WHSXfrAMb5p00Ya86h267PXifnzp62togt/D0PKHfnM5B76qT5ffH20iVmO9TznZ9/JoN+/6C3rPV+6bGcddOO1lN73Q6Gm5veKs1a3ia7dnruIyGEEEJIPEBhl8QUoVpfoWECv3JopKFhCNDQU9AATO3W0+Q7h/ah0YNGJhp3yF/5tw2yZuVyIy5jOCF8+k6cPsuIyRCV0VCZPG602U63x/HtDWusY2ijNhohTtjzA10vrgcNWvjI03w0eO0No4P798r3331n8vW6YoVjJ3Ll8LGTMiCth9fisEundkZY3bFrr3EjsGTuBJ8h7o0b1pUOd9xmrXlI65UizZo0NsvYB9vDklEJlN8j5U6Z8tRQ7/kxT259q1mOFYIVyDMWLpeeqZ28+UNHTzMi4OrFM01ayi/bewXvYATxfQcPy3ffXzL5KGOI6bEuoqNcIJ6iAwH/I+bLs9b7iLvwhfzjCgneMqhbq7osWrrGyi08H5S/5kemTOFXF1P2srlSu2aiEXsB9sWEe64dJcpbq9+V8SMGmvyycB/hRqXKlQVepi6cP2fWYYH4k59ea1wo1KlX3wz5hsiECe9IpEFggqsGfT9jwvvbaf13zTXl/b7f4SJAvweY4/tgf3+vWfmWjHhqnMkPhxsFnMsucmIOkQujWPC/+vtm+RPXyhJ869q2uMErAmK6M7m5EXX1W6wduWn9HvF+y+76VZcCwp4KwQA+iqtWSzS/FQA6eu2dvdgOQr8bH36wwYz6wTkAtoU7gFhBxWyUUaDnwfU3Tvnyxhp+966dpt69OD9TfnrtteZ4QMVgoPUTAjmEcqd1NOoxzoNzOzviCwP1INHFYp8QQgghJJahsEtiDjS8EhIqWGuBadu+g3f4IRoEEFXRMEYjBCAfjRw3nENCMQxw7n8tcfWzh+NBTEBDRvMxN5Y/lsgA0FByNhrRENeGT6DrheWZ/fjIR4P3s08/9mm4w5otFjl34aIR9atUrmil5AurdmEWoh8EK1gYNuvQ2wSKslPYUPRghqrbrSwhaMYSRRHINR9Cr5Zd/Tr5Pv6CFcRhKa3EuoiOegp/t/C3q76NMcc6xF21ukW5dmznEaK0DCB4q7hdWL4/0FFy8ZvvpO/9+aMfcM8hyK/J3mSliBHTIQJHEhBwa9et5xXv8K7GuxLvxKa3NjdiIMQpFQaR5vb+RnqVqtdZa/7R9zve1yogur2/ITji2gLhJmhiCmaEBQRPe4edfiOUUL5ZZQ2+hSoAQojGty/9scd9OljdOnL1f7YLe7Vq17WW/AMxUcvaHnTVDo4J0VDLF6ATIZg6EmnA0tZevzDZYxAU9XnQ58yJmwiPewkBWJ8Z8H/eWWFE3VCCuBFCCCGExDsUdknMcfzoEbl8+ZK1FpjCROBA+SqwwooIjSK7ZZYTXA+uy9nAREPp228ueq/XrdFotzzzdz1Xrngsz5yNtR6/7ugzTBSNMhwznlBRF0IYhow3Tu5mxFlYGMIC0ilIFgdYUkLMHTNpjmxcNc+cY/akEVZubFFcgdyNQIJ4taqVpUqlfAswJVZF9EuXrxg3Hz36Pe79/zBh3Q4scCsklLfWClJYvj/QUbL67xvNvbWfH5bZdiLRJ6+Ke+jsghi658vd5l0L7KIvJizbxVaIsOouwfn+9Ie+33/32x4+71+s23G+392wC5r2KZQRFvYh9PgmKKF8syIJCH+wdF6fvTaoofmhWGuq6wq7JTME5FgHlrbOOuYUWUGoz4M/Ed1NhHeCTo0JzzxpLKrp85oQQgghJHgo7JKYwimEOkGDNxjLp2BAAwgNITSIzHBES1QNpbGMxg6GLxaXy3n/D4QFt8bam+9kx4TliwqzTj+eKixB9MO9P3c+vzwhPsI6Edah+w56rNUg5sLqEWDb02fc60qoqIUlhFwMZW/UoI5Jt1sLxwLhEMiLIojHuoiudRNuLPC/2SdYTKsVb7g4evyUuafqBsI+6fMTyUBgQmfXoYMHjLWgCkUQRxMTqxvRFxasWEYaRjXA56cO98e7E0PBg7HGxPfm7Jlc47/V+f51E8vChVqd2l3+4JuglMQ3q6zANwwjUmBNi+84cPve49uO+w73GoUB0RJWqrhvep90fzdwTB0ho+AbHos+dovzPBQVuJl6c9XfTQd2UYPc6v2L1ZFJhBBCCCFuUNglMQUaf61uu12y1/r6kAT4wZ/1zoqgrKZCBUMKtbFsXCtc8RWOYWWLxopzKCzW7Va4bo3GYHwGJ+T9PzhOLPuVg9UhrA+3bNtu1lVI1SH9GA5er3YNHx+r8MOas2O3NG96g1mHUKbCr/qKReCoksQu5EJ8dFo4RjslLZAXRRCPFREd9QNWz1pfQcWf/sR0UsClyHXVqhiBtSyok/es2Z+XaAMudDAaYueOz+T6Rjf4iKsQfRBMbdP773kFIPhkhasEWMvqcP9gRTu8n2Fl6Hy/lyb4buDbg2+QvTPP3zehwDfL9t2JVOCmCBbN+I7jetX6Wn0Ig3+8u06+2P6p10I7GOz3DT7rYTnqBiye0YGKcwAIw/CrHIsU53lwo7BOd4Dz1W94vYlrYBfwQ+HLXTvNPfLnQosQQgghJBahsEtijs4pXV2HbKLBhh/8vR/sa6UUD1g5YYii+k/UhjWGAF9bsZIRkLVRDSEZ6fZAPJhj3e6TDg1KZ6PRHvjFH+XLJ7g2hpzXGM3AKnfk0H7eofdqMQpfq5oPn6tIQx62yVj4lmRMG22EP/gHTe93n3ToPsDkYYj5wId7Gl+wKhYXB+f1YYL4+MZLk4y4DJ+lsUI4BPKiCOLRLqJDPLXXDYjmX3/zrRF1YZHbK7WTqcP2YGUIpuYUg8MB/CM7g9GptTbKOtJBZxkCpmFot9N6DyITAklisrumwfdB3eLg/QzLVzfU6lff73g/4z1tf78DfINKaoRIsNiFXLz/7f5iA32zSrqzMxzgGvGdw3cS33Osw0UF7oX6JQ7FPyvuG1w8mO9w3r6YAMRuWPI6v5vYHj5o4bYB28KatVPnLlHpYzcYAj0PzmegMFSEt3e645iDfv+gzzMDEFgQ7jDw+yeU3y56jcH8ZiKEEEIIiSUo7JKYAw26RUtXG+tXbaxhwvoLL75aYj/4YcWC6NnqrxANSzR01LoFYgIa1dqQRvqosZOMnzpsjzmGlur2QIOpIV+HQNrzA4HGEIaU2v08ogGqwVBiAQ3cdTTAkHCkab7dmhNABNY8TD//WSsjButxMHce055WWL7z+nBsnMN5HdFMSQvkRRHEY0VEd5Yl3EqMHzHQ62YB9dWejwmuRZ798x9MGYQTHB/nAdpRgnsNsVk7UyIZCE8QLN0CYEJkgnWgPZiZ830+cli6eV/DEhfWi07c3u94f+v7HRO+OU+MGhuSaOoveBqmQC4TcI4hw0cYQVK3x7dk7oLXjQUr3FE4/0fnNytSwPX48ymM7xwsjQcMHmaliFlGGia7tTK+e3CxgH0UZxq2xT66P46F86trBue16P66/b33PxixAeiKg7OuuD0P9mfg4tcXTJo/UH54Fuy/y3DMkU+Pdy077YCf85dpfjtGnD6t8ezhGu312Z94TAghhBASS5T7AWOjCClFFmTtkLPf/kfSftPCSiFALYztDdZopvuwTNk0oYVcfVU5K4WEg/6z90i35CpyT1I1K4WEi7vH75T0u2tI92SWdWmwausZmfL2EVk96yErhUQSr779sWzJOSwLJvS0UkhJM/C5VdK+VQNJS21ppZBI4t7hS2TTy2l5v3Oiw05m8PPZknpnU2l1k8eFFQk/uw+clsysHJk/JsVKiU4+35src97YLC8PjK1OrFjnj/MPSto9SZJ8Sy0rJTrZuf+0vLD4A5k3qJGwVRk9DF/wlfRJaSNtm+UHKSbhgxa7hBBCCCGEEEIIIYQQEmVQ2CWEEEIIIYQQQgghhJAog8IuIRECXDDEihsGQgghhBASG8CXOPwp2/0aY+rTrXNYfBjDp7i/4JN6LfZgwaUBXKY5AzMTd4IJtoq8zr0HmQCxuj1iJxQG9itOEFnnuRCUFlNRCOW6S4qyOCcpCOqhxr+wT0WtS4QUFwq7hBBCCCGEEEICgiC9GjwQE4JGIhAeA9QRN7I3/LerAAkxF3nVqnqCO2vwYQSVJSRaSOuVIvu2vuMNmv3FxmWmvlPcJWUBhV1CCCGEEEIIISFxx887StVqiXLh/HkrhZB82ie3lO07/2Wt5bNj116TR0gsgQ6KXqmd5GTu2SJblBNSVCjsEkIIIYQQQggpFnCh8NfnJxk3CnDVgHW4U9B1neBKAS4VFGxnzzt39oyVEzpurhrsabq8YX22met5cQ124HZB83D933//vZVDgqVe7RqSe+acsdBV4Epga85OubFRfSvF3b2Ac6i7063DjIzF3jynawYsI03zcWycIxhwrXARofsWx/oSx3ogfYzP/29P0/8b1suY6znt/6tuo3nL17xn5ZBIB/du0MgpsmTFOnPv7PUQ9Urvqbok0Xprv/9udQj7YtI81B97naWbjviEwi4hhBBCCCGEkJD48IMN0rJ1G2mRNymLXs2Q1G49jauGLl17yGvzX5LExOpe9w3vb91htlu2ZJGZQ2zFPiv/tsHkPzp4mMyYPN7khZO3Xn9NJs2Ybc4JFxO4BnUpAZF3e9514VqR37pNksknoZGQUF6a3ni9sdBV9h08IjUSq0qVStdaKQWBsJWx8C3ZuGqeGeKOOdZVsMpcvtYcF3kYCg9eWrTczCGc9R8+XpJb3+odIg8ryiGjpnpFNX/g+OkjJknGtNHeY8P6MtxD6xcty5I5k0eac65cOMP8ryr0TZ290Lio0OtB+sYPP7X2JJEE6te7G7fKgLQeklD+GpN28Ztv5Yvd+8y9g7uRCnnPBMRb1Ct145De7z5T746dyDX1Fh0f2lGBZ2fTRzly7sJFs45zoJ62S/JYvJ85e17+sfljWb14pjnW7EkjTH3V7Un8QGGXEEIIIYQQQkhAfvfbHl4rVkxjnnhMcnNP+QQ5a9u+gzS4vpG1VjA4cMVKlY0YDLBf1jsrjK/e+g09+0AkTn/scbMcTlK79zTXAnC96lICFr1Zq1YYgVnz7/pVF+nZJ80sk9Bo3vQG2bXngFeo2rJtu1eUcgPbQdiC2NWoQR2Thnn2srleH7wd7rhNOrbz1CEIaBDDdPg7hOO6tapLl07tTD7AMtI2bAkccA/XZj8vjg2Rbttn//SxmCxpIDxjGD9o3LCuXFetihHmIAgeOX5K+t7f1eTp9TS9saFZJ2ULOhgaJ3fzWso269BbVv99YwFRFfVThV6It4ePnfQRf1E/WzdvYkRcPC/Ix3aoz3h2pj79mKmbAPUboJ4oPfPqjx4L+//www8UduMQCruEEEIIIYQQQgLiDJ4GK9svtn9qrHKVWnXqSkJCBWstH7u7hYxZM0za5cuX5PjRI1Krdr5IAerUyx+mHy6c51QunD9nhJFKlT2iLiifkGCsjkno1K6ZaOYQqmBtCAHWLko5uXT5ihEz69TyX94QaWH56MbRvH2dghuWkRYIiGi4tqGjp3n3w9Sh+wBjFRlO/P2v+F+c/2uVyhWN8EvKnjRH8DRMTwx6SMZMmuPTEWC/vxBcy5UrZ+6jAlEW4u+hoyfM8wIXJtgOz8I3335v3Jbs2X/YPD+oE+jg0I4ABCAMZP1O4gcKu4QQQgghhBBCQgJWtrC2dVrt2lFftbCCVdcGpWGRSyIDiFbqjkHdMKgoFQ4gjrkJbph6pNxpbVUQFZQxlN25H6yF1YqXkEDAulotrkMB9RbgecEzAgtdfV6aNWkstWteJ8dPnjbW7IEs3kn8QmGXEEIIIYQQQkiJArcG8FULS98X52ca1wYQgCEEA1j2wsL3+DHP8GLl6OFD1lLJACvcs2dyrbXAVKpcxVjUwS2DYr9mEjrqjiF7w0eFilKwToWVKiwTi0L9OjWNQAuhNhT0vCqwhQsIfsFaAMPS0/m/nDv/tZw+c85aI9EGrGuNq4S8+6iotTjqLsAzAj+6K7LWm2XtHFm17n3jpoEWusQNCruEEEIIIYQQQkJC/dEiWBrcFfjDLtzCbcOKNzPNMvbBvvbAZQimpq4aioKKxfDdq1bE2WvXyJ4vd5vlwoD4DP+7r7w40/x/4B/vrvNeMwkdDDvfteegmQK5YQA6LH151npvsDMIXwg4haBqhaG+dxctXWPmAMPiO/ce5A2+5gbOC1+l0+cu9tkO53xw0FPeawkF/N/oJFiTvcms4/+AWBcssNSE2Kz/C/afl7nSlCOJTODHGfcM984NdbWA+4j7Cdat3yI5O3abDhCgzwjSVMSFyJ+xcLnZV92bEGKHwi4hhBBCCCGEkIA4g6fdmdzcBBlDwDM3IJKOeGqcEW51HzBx+ixjyQvhFPuOGjtJevy6o8mHoPr4qGfMdoFwXgsmuH2AWDxk+Ajju7dtixtM+g03NzVB3YKlS9ceRtzF/4f9cz7ZZlxOkKIB1wvwC2r3DRoIuExAQDEEo1IfuRB7A7lSUHD8OZNHGnHW7id34ugh3uBr/kD+yoUzpEe/x737Ls9ab44X6Lrt2+s085XXzT7jRwyUte9tNmn3PDRM7mp/u/GLGgwQm5/98x+MNSf2RznAJQSCx5Gyx+nLGRNcJeCe4d65gfQpTw01LhZ034yFb0nGtNFedx/6vCCgmoq4EHtx3+2B2AixU+4H2IITUoosyNohZ7/9j6T9poWVQmKR7sMyZdOEFnL1VeWsFBIO+s/eI92Sq8g9SdWsFBIu7h6/U9LvriHdk1nWpcGqrWdkyttHZPWsh6wUEkm8+vbHsiXnsCyY0NNKISXNwOdWSftWDSQtlf70IpF7hy+RTS+n5f3OiQ47mcHPZ0vqnU2l1U2e4b4k/Ow+cFoys3Jk/pgUKyU6+Xxvrsx5Y7O8PLCRlUKigT/OPyhp9yRJ8i21rJToZOf+0/LC4g9k3qBGwlZl9DB8wVfSJ6WNtG1W20oh4YQWu4QQQgghhBBCCCGEEBJlUNglhMQM6oMLw5/8oUOz1H8WttXt4UcL++M48Mf1QPoYMyeEEBJe1q1ZKYP7p3l9WjpBOvIx1Bpg+4ljRxkfmvDNOej3D5q5bgc/neHCfm5CCCGEEELKEgq7JCbQhpzdz5ZOzsZdpDbI9H/A9fkDeX26dXZtvKKx69bgjUf+te+Qa4AFBD5A0IKmNza0UkSGPfqAmUhooCwRTCJQIAvkIVgFxHHdvjBBnbiDctOydEM7Ndw6JgKVfayBd5/bd8D5PiwN8a+o4H/AteEa3dBrjwSBs6SBd7CF8zJcv11Zq5abfAU+MMeMmxwwYBMpeeK5fhJCCCGERCIUdklMseCNlZLzryPeaeXfNsjkcaNNw0KJ9Mbgxn+869rQQUMIeVWqXmfWEZDixfmZfgNWxDOtm98sh46eKCAU7jt4xDimv65aFSuFFJfsDf/tFQztQFBEngaIQCCAJXMnFBq4ggQGUXTdIjMjou7XF7+11sTU89czJnoDMcQTPfukyUef7/X5FiQmVpc/DX7EK0ZF+vszXgXO2nXryY9//GM5eeKYleIB9+37776Tm5rcYqWQsoQCPCGEEEJI5EBhl8Q09Rs2MpF2EY0Xwmg0kPSzdrJzx2fWWj67du4weaRwqlWpZOZf7N5n5gAib/aGj6TlrTdZKR5CsV7Edhr11Gk9iTyIbrCMtLt6iHXaJ7eU7Tv/Za3ls2PXXpNHSg50SECoRQeFHdRtdGSgQ4O483D/gVKrTl1ZtmSRlRLZxLPA2azVbZK9do215uHDDzZInXr1TZkodkvQwkBnqd2C297Zi+W/Pj/JHMuZFwz4bTHqT4NlycJ5rtbhsQgFeEIIIYSQyIHCLol5bm56qzRreZsRRoGzMYh1twafDhPcsD7bzJ35ir8GI9LVbYKCZR2G6I9aeQ2mM6dP+2yDa8n5ZJs0uiFflNTrC2YYI/5XbbRiwn7YH8Rqo7RdUkvZsm27tSZy7ESumdepmWjmoaDD3MHR7evMNHH0EEkfMclH3H1r9bsyfsRAkx8vlqn1ateQ3DPnfMoBFqVbc3bKjY3qWyn5rhuCEby1vFVEx35qpYrzDBo5xYjoyIs3Fw7omEAHhf1/1g4M7dAAKKdgfURjG3RUaHnbOzpipbxhLZjaradsz3tf4t3nfH/quts7Ur8Zby9d4poP8B7F+17zdRi6vnt1XcG6M81JaQucuB58B7Qcgvm2hIPrr28submnvOWL/2vPl7ul6a3NzXqo4H98Je9/e3/rDmO9jXnWqhU+/zs6f1E/kA8L01A5uH+vETSxf7xYp0abAE8IIYQQEqtQ2CUxDxpYGIZ79PAhKyUfNCLQwNMGH1w3rFm53EdUfev112TSjNkmH64e7Na/aFj4azA2uL6RVK2W6BWUAZZh6VKjZm0rpSAVEirIjTc38dnvqwP7zf9QqbJnWHsooHGMIcit2ySZa8SU2r2njH58qLfhHIuN0sYN68rJ3LNeQRAWpE1vvF4SEsqb9VCAKHzxm++k7/1drRQxwm3KL9vLmuxNVgpcQDSR2kUQjqMZlCfKFeWrwKK0RmJVqVLpWisleHC/+g8fL8mtb/WK6L1SO8mQUVO993LfwcPy3feXTN6Up4ZKQvlrTHo8oB0T2lEB0IGBjoyiAKEdHRQZ00ab8ty39R3z3NjF3Vgpb7w/MUT8wvlzVooHCE5z/jLNvBf1HdmydRsf694Vb2ZKhR//2OTBzYPd+hffkZHD0mXqzAxvPoRJCKV4l+Ldq4IywBzrSW3bm3V/lIXAuWblWzLiqXEmv6zcVMBNRmLe9w7fPaBWoYG+m/5AmaFT9NHBw8xxAeZYx/+uZdu2fQfzzS4Ohd3PWCMaBXhCCCGEkFiEwi6Ja44f8x3SDNcNc/9riZkraOxrg1DF2gvnzxfaYAQQB7ANttXt0cgvTDhFwwgNJOwDtn20uciNRjSOIULc9asuVoqYZaTBukaJtUYpfLpCXITICAvDXXsOSPOmN1i5oXHuwkVZ/feN0qxDb69VI6bpcxdbW3jA+eJJZFRQrihfteQsjtCI+1W3VnXp0inf7QiWkbZhS74FYVGPH+04hXSI3RBi0ZFRFHCv0vvd5/XFi/o7IK2HbPvsnz7WvrFc3pcvX5LjR32/BQPy3uOYFAh/d/y8o1lWsRaiFt7ReD/3fSTd+91Aflq/R+SzTz82nYB4n589k+sVKnVemJCI70lpC5wY3VKU45c0+B6hXAE6OdHZWZQOR723v/ttDx9LUKzbwfcwIaGCtRY68H1flI7XaKYs6mdJCPCEEEIIIbEGhV0S12hD/c7k5n6H9tWq7S6YBNNgROP0i+2fmgYPpmNHDgdlzaINI+yDBg0EhKI2ZiBew9qsbYsbvNeIZaQpsdooVXcMat1YVGvao8dPSYc7bpMvNi7zWpHqNOzRB6yt4hctV5RzcYVGlHXm8rXSOLmbV0DHMtIUBGQrijVwrGAX0tU6Gh0ZoYL9ca+Gjp7m02HRofsAOXPWI6SAWC9vCEjowBvzxGPm/eh0swD8CX9Xrlw272fdV6cev+4o586eNtvgfQ7BVIVKzNHppwJWIEpb4IRQV5TjlzT43qFcc0+eKJYVKKyzIao7A6tiQvC8YO4B8U+0CfCEEEIIIbEIhV0S88ASBA1EN4tUNOrQuEMjb+L0Wd7GuZvA6ySYBqPdvy+mwtwwKGgYqTsGWMOgsV3UBihcULhFiccU60MZ1R3DPzZ/7HHDUERr2jq1qsvpM+fk3PmvrRRiB+WqVqTFERoBgoCl9UoxLgHsAjqmHil3WlvFN3YhvTjW0ZcuX5Ejx0/J7EkjCpR19rK5XiveWAEjLfy9g/EuxDsRw78BOvvcBF4nl/O+LxCk8P1wvl/ffCfbWPHifa7+fQ9/dSAoNwxKvAqcuJ7EvO/e5o3/MOtFsQIFlSpXMaNsnKNzQgF1AHXB6XMY1xcJInhZQgGeEEIIIaTsobBLYp4vd+00De/CLF61YW8a6HCfcOWKleNOMA1GNPowZBcNnmDdMChoIGE/BG8LVgRwA4FM8P/DIibeqGD500VQs6K6YQDNmjQ2/nMRQErdDcAyFUG9Vq5936zHO2pFisBexRm2X79OTSM2QnQk7qiQjg6L4lhH4/mAiwuI6bEOOviy3llR6DsYAhKEJBV4dZi5PxLyjgUrQjcf7nbw/bm2YkX5ZOtH3vVgiCSBs7TBt2vCM08W2QoUoPxgjW33jQ/g/zjYgF6wEMU9VstUdRuA64t34rl+EkIIIYREChR2SUyDhtzkcaN9/OTagWWu3SpLG2ym8V8+cJCtYBuMEGg/2rzBuGQIxZoFDZ09X+4yU7AigBvqbsIeCAjXiwjuZRX1vLSAAIYgXMUNaobjPPvnP5hldREAf7sI6kUrUg9VKleUXXsOmqmoQiPo2M4TsGnR0vxo6/D12rn3IBPoi3iAFfm46a8Uyzoa9bpnXh2Gr2h72aKzAp0WGqwuFnht/kumg0vfh3bUItM+UiNYP7jly3uscTNmzfB5nzq/LfheXN/oBiNUBuuGQYkUgbO0wffyZ+1+UWQrUAWdtvCBDPcYOsQfVqZPjBobVHlimyHDRxhLa+wLV0YQM/2NeEFZokyDGfkTC8Rr/SSEEEIIiRQo7JKYwumfDQ25UWMn+W2AIR2NbPWxW1iDzUkwDUZYsMAdQ6hBadDQwbWFKgI4wb6TZsz2Nkrt5VJWUc/DBYQqRO23i61Ytkfyhwi2ZO4Eub1lU7MOH7nqJ9e+LYahv54x0SeoFPKO2oar289jP048gnJFmWIqqtAIsO+cySON0Gj3+Tpx9BDvPSMeNyPw+1zcoGYo05ULZ0iPfo97y3t51npzD4pzH8sSp09xfS+/8OKrru9SpI14apwRlXR7dAgiLZh3L96jGEJu//4g4BPeu/b9deRFqCMwIkXgDDe4vjHjJnuvxS2YqT2onX17+7Yoc1hd279v2NY+vN9+Hud53dBj6v72wHrO68RxcDwcNx6Il/pJCCGEEBKplPshD2uZkFJhQdYOOfvtfyTtNy2slNgGlibTJ48zVsDx0tAD3YdlyqYJLeTqq8pZKSQc9J+9R7olV5F7kqpZKSRc3D1+p6TfXUO6J7OsS4NVW8/IlLePyOpZD1kp0Q0sel95cWYBwTdaefXtj2VLzmFZMKGnlUJKmoHPrZL2rRpIWmrxOnBIeLh3+BLZ9HJa3u+c6LCTGfx8tqTe2VRa3VTTSiHhZveB05KZlSPzx6RYKdHJ53tzZc4bm+XlgUUfQUhKnz/OPyhp9yRJ8i21rJToZOf+0/LC4g9k3qBGwlZl9DB8wVfSJ6WNtG1WNDdNJDRosUtImDl54ph8+81F1yHAhBBC4gP4aPXnFogQQgghhBBCigKFXULCCPzDYVhhn7TfsTFPCCFxiPo0x7Dyu37VxUolhBBCCCGEkOJDYZeQMAI/fPDHF2u+bAkhhAQHfK+++U52oX5cCSEkHoDRgzO4oAYdVP/K9qB5cGOj6c4Jx1Kc28V6gGBSEATbHTRySoHgr/a4DZg0YOzlK/+WJyfM9snTCUF7cTy37bCMNBJbIHjwzFdet9byQbpbvVA0yLNug+3toD4iKLHmu53DCY5Rt5Vne7djFlYnC8t3XlOsBU2ORyjsEkIIIYQQQggJKxBiM2bNsNY8aCwK8NHne41BBOJSIA15MI7QwIU6IWDljTc3kc4pXc1+GBmBoJdI13ysI53EBxDX0kdMkq+/+dZK8QARFwFiESgWgY+/2LjMCGtIdwuMvG/rO5LWK0VSftneG0D5pUXLzRx5mICmkdgAwunQ0dOstXyQnrHwLdm4ap6pHxnTRsvTUzO84i7qkQZ5Rj62w/baeYDt7h8wUnqldjL5qH/Icwq1dpC3PGu9fP7+Uu8+WLfvU1idDJQPAXfIqKnea8KEZaRR3I1eKOwSQgghhBBCCAkLX184L4P7p8n67LXys3a/sFI9IBbFsSOHJa3fI95RDeq25stdO83cDo6FQJR9H0k3IyJA9to10qlzineEHOZYRzqJfSB4QVxr1KCulZLPlm3b5YlBD8ntLZua9coVfyrDHn1AVmStd7W6Xbd+ixw5fkr63u/pNIAwt+2zf8qAtB5GCMaEZaSpuEeiF7VshRj7i7atrVQPyNuas1PS+93nFfkxv6/rL2VN9iaTj3pkr1/IR6cA6h3Adq2bN5EundqZddQ/iKg4rlv903NimyqVrjVpzn0Kq5OF5e87eMQct2O7/BHFuqx5JPqgsEsIIYQQQgghJCx8+MEGadm6jSxaulpq161npXq4cP68lCtXTipVrmKliBF4ExOry/FjBUWGZUsWSa06db3iL6x64cO8Tr36Zl1JatvepKtLBxKbwMLw3Y1bjaXk7x/oZqV6gAh2Mves1K9T00rxAMHs4jffyaXLV6wUDxC9IPBB+IWYBs5duGjqZ5XKFc06qF0zUerVrmHySHTzxe59Zr568UxJanWLWVZQPyDy16lV3UrxgHXUqwt5dQ/57ZJaWjkeUH8waf1Lbn2rEVeVHil3Gktxe5qCNORhG38UVicLy4cIvWTuBG8dJ7EBhV1CCCGEEEIIIWGhS9ceJu6EG5UqV5YffvhBLpw/Z6Xki7VHDx+yUjzAtQKsflO79fRa916+fEmOHz0itWoXtNZEOvJJ7AJxau7UJ70WlXYgktVIrCqHjp6wUjxA3Np38LCcO/+1leJBrSubNWlspYgcPX5K6taqLhUSylsp+SCPRDcQOf2JrLjnuPfO+4x1CLoncs+Ydxew+6tVlwkQhrFttSqVfPzdBuNj145a8aIu4zoLq5OF5bsBS93TZ855rYRJ9EFhlxBCCCGEEEJIqVOjZm1jxZu58FWvdS1cMKx4M9Ms29m1c4c0a3mb3Nz0ViuFkMDAmnL63MVen6cQyTB83gksf7FNz9ROriIfiT9QD2BtCytuWHMD1BP4u1XOnD1vhNo5k0f6+Ni1+8N97oV5xhWC+stFPQtF3IVvXLt7kJIG/9uYSXN8XE6Q6IPCLiGEEEIIIYSQUgeWt0+MGmuW27a4QVrfVFe2fbRZ0h973KQpEH1zPtlmAquptS4hhQGLTAROQwA1WEve89Awuav97VKtamVrCw/qW7Rxw4KW3yR+gUsECJ7w4Yz6gwBjfXunWrli6tH4EQO9bg0gjGJ7iL8XLn4jsOdFYDUVTLEd3DSsfW+zVywOBARgbGs/R0mCa0DQQfgFDuT+gUQ+FHYJIYQQQgghhJQJEGrHjJssOf86YqaH+w8s4DdXg6w1vbW5leIhIaGC8bnr5o8X6VeuXDGB2yAYY8IyArCR+AHirkb/z142VypXuraAD1IEu8J2TvEM/lRhLen0xwuQB8tMHWKPyW6pSWIDCJ5af+Cb9rvvLxlXBwnXuFt2O33yOoG7AwjC8PNsd+GAZVgEKyrqZkwb7WNJW1idLCxfsYu6EJtJdENhlxBCCCGEEEJIqQORFWLr5zmfWCnuIq5bkDWggdac/nhh9Yv0xOo15MX5mV7RGMsVK/laa5LYBUIr/JvCBYPiFHH9BVkDEOHgR9Xuj/fYiVw5fOykybOLfpho9RhbQFy1u01Qf7dw0dCwfm3XIHrq47ZmYjVPp0Leuh0NbtagXi0jFGvdsQc0wznhsmHpvKkF3CMUVicLywcq6sK6mKJubEBhlxBCCCGEEEJIqQORtWXrNpL1zgrjbgET/O22uu12qd+wkbWVGItcWODCQtdJ55SuJqiaisOYYx3pJL5p3vQGydmxW77Yvc+sQyyDFWTXzr8w6wCWjbBwdLO0hKiW1OoWmZe50oh6mLCMNKfgRmIP+Gi2u01Yt36LqSsd27UxPnjhkxkirFraYjv42IXwi3zUs7fWvOfdH9thezfrcAWdEainsyeNcN2msDpZWD6u4ZlpLxlRlx0RsQOFXUIIIYQQQgghZQJcLwD42MWUmFhdBgweZtIUWOQi3c2/LgTgUWMnye9+28O4W8Ac63ZhmMQnELLg41R97CJIlHNoOywbYeGo1oxOBvbtZeaNk7uZCWgaiW0gwNp97MJ3LgKlqeCKfFi8NuvQ2+RjO7tginr23Mh0Yx2LfGyn+7ihwdk2fvipNO94v9lHJ7urhsLqZKD8DVs+MccfOnqaz/Ex0ZVI9FIu7yUGn86ElBoLsnbI2W//I2m/aWGlkFik+7BM2TShhVx9VTkrhYSD/rP3SLfkKnJPUjUrhYSLu8fvlPS7a0j3ZJZ1abBq6xmZ8vYRWT3rISuFRBKvvv2xbMk5LAsm9LRSSEkz8LlV0r5VA0lLbWmlkEji3uFLZNPLaXm/c6LDTmbw89mSemdTaXVTweHmJDzsPnBaMrNyZP6YFCslOvl8b67MeWOzvDyQQnk08cf5ByXtniRJvqWWlRKd7Nx/Wl5Y/IHMG9RI2KqMHoYv+Er6pLSRts1qWykknNBilxBCCCGEEEIIIYQQQqIMCruEkJgEQ0nszu4BfAwhgIION3EGU3Dm62QflgIfSZ17D3LNI4QQUjrMe3GmrFuz0lrzAN+cE8eO8ka/xzLS7Bw6uF/6dOvs3cZ5DPjm1Dxsh+0JIYQQQgiJVCjsEhIiaASiQekE6f4ag87Gpk7OBqWCdLcGKQkOiK3wG2QHou2zz79slvdtfcdEH4Vje6SpuKvBE1YunOGNUIpJ/STBkT18J8FXF9I3rppnHOQjPV6Br6dBI6d4gwIoSIcvKBXAnSI7ykzzdFLfUW55OjmPE2+gnFHe6mNLcZaZs04Wdj8K6/QgviCK+6g/DS4g+ml0d33Hu30rkKb52Bb7uOHvW0M8ZZgxa4a15gHfy+mTx5nljz7fa6Lft26TZNL0WwrRtsevOxrfm8hf+bcNsujVDJ+AS5PHjTbpyMd20yaM9XuP4pmi/BYC/oR1f7+TMFFgJ4QQQgjxD4VdQkIADZAxTzxmreWDdDQOtTE4dWaGTH3uGW9D5PLlS3L86BFZ8MZKk69Tl649TL4d7INjkdBRcQpi6y/atrZSPRw7kSuHj52UAWk9TJRS0KVTOzPXSLmBgifg2Cuy1ssTgx4yTu8BHOKn/LK9bNm23azHGxALh4yaKvsOHrZSPGg6yknFcWAXE48ePyVpvVK8IjumJXMnmGAE9v10gtje9MaGPlGM4w2Iugi+8PU331opHiDiIiiIdkh8sXGZKWsVd7Hf/QNGSq/UTt585NmtzV9atNzMcT8wAU0jvkDkG/34UDm4f6+V4kHTEd1d3/FAxS8VrnJzT3mFR2w75y/TvMKj4u9bE++ocI5o9z9r5/suOHnimBw7cljS+j3iDa5016+6mPmXu3aaMkbU/fTHHpcWeeUOEFipU+cU2fbRZrOOed9H0r0Bl25uequJwv/VAYqKdor6WyiQsI57NmbcZO+zgwnPSc8+aeYeMQgWIYQQQog7FHYJCQJtkKMB4mxMIi/nk20+jUHMu/boJdlr15j1C+fPGcGwUuXKZt0fOFbmwlelwfWNrRQSCirQrl48U5Ja3WKWlXMXLkq5cuWkSuWKVooYgbdGYlUjMgK3bRS15m2X5BvEBlFN/UU2jWUgDCKyK+p1taq+9XrfQY+g1ff+rmYOsLxn/2GvZe+hoydM2avIHggIxRAqEWXWHsU4noAIC2vxRg3qWin5oGPB3uEAcRx1Eh0R6JBYk71JWjdv4u3IQD5E3q05O00+7sm2z/7p7fTAhGWk6f0iHiBA3Znc3NMBVPU6K9WDin+9H+xr5gDLB/bvNcIWxMUvtn/qIzx2TulqxEiIkiDQt4aIfPjBBiOGL1q6WmrXrWelerhw/rx5f1eqXMVKEVPOiYnV5fixI94O1qS27a1cD4i8r9H3MXfrcMX+pHi/hZBfmLDu5B/vrjP3zP5MEUIIIYQQXyjsEhIEaJADNCZb3Xa7WVa0sVirtq/ggnVYZqEx49bgdOO1+S+ZRmiHu35lpZBQgLA15amhrmIhrHAhxsAqV4GodTL3rBEZAQTejR9+agRLHZKuVo1qzQvsQ9rj0ceuWi/DQvS5kelWaj4ox7q1qkuFhPJWipjla3/6v414ruVev05wkbkXLV1jjqfCZLwBYfvdjVuN64/fP9DNSvXgryxR3y9+851cyNsX+XA7Yn8u4F5EnxW3Do3aNROlXu0aJo94UGEKIy9GPj3eSs0H4h+sOxMSKlgpYpZ/8tNrzTcA+c1a3iY1auZHB4awNfe/lniFsEDfGiJGdFUR1gk6TvGORkeqgnuG7/DRw4e8HazA7i4DVqb+UGHxjp93tFLim+L8Fvr66wuFCut2dPTSo3l5FSsF7hQnhBBCCIlnKOwSEgSwLsEQQbWysoOGOxrzToserKMRYxo7ecsfbd5oLL38NSZhCbY9b6JlSnhQoWpe5kojhgFY+GYuX2uWAQTeDnfcZoaq65D15RAwLfH2zNnzxnJ0zuSRJl997MabuAsxEKKgWog6qVOrurFuhpWzohbPEH11GX6QVSBX/7pOYDG69r3N0jO1k6tgHw/Awnbu1CddrZVRJrB81s4JBYIsXGScOHXGlHW1KpV8fOg63WI4hXhFrdmJx/oT3wG1NnQCAUvf+YqKXfgGQFxExx3EQv0OOH3sBvrWkMBAMIcVL0a9QNAFECJXvJlplsG5s6fllRdnyqQZs31cAbh9j3F/4G4gtXtPCosWxfktlHvyREjCOqx80RECdxiEEEIIIcQ/5fJ+ZHl+ZRFSSizI2iFnv/2PpP2mhZUSXai/RLuFifqVgz85WF6pr0WABuSyJYuMaItlNBA1Hw1GWCDpOixT0HDC8TCk8YlRY6O2gd99WKZsmtBCrr6qnJVSuqhwZXeTAEEXwdJUzMXwdcWfOwWIthB3se3zL75mLFTtApvmQ+yFAFfa9J+9R7olV5F7kqpZKaULhNenp2b4lIvdx66WK8oJQu7sSSOkedMbjK9YuFbQwHT+yhHpcBnw7J//UObC7t3jd0r63TWke3LZlDWACwztXNBysvvYRZlrPc/ZsVumPv1HmZ6xWE6fOScZ00abe+S8P25lrMeApa/eo9Jm1dYzMuXtI7J6Vv5zGinAmhC+Q2G5q9a2+h6HqwD9PuBdDnFw4vRZRthFwC8s63B/fE/s3wY7bt+aSOLVtz+WLTmHZcGEnlZK6QHhFkHREBzN7jpB01XMxbB/BW4vnPcM4B5lrVrheg/0eBDky+I+DHxulbRv1UDSUn1dAEUCof4Wwr2Y8MxIqVot0VvWeI5GDks37hvs99H5myhSuXf4Etn0clre75zosJMZ/Hy2/K8oudZY4vtL/5b5Y1Kstejk8725MueNzXLtj6+2Ukg08O//+X+Sdk+SJN9Sy0qJTnbuPy0vLP5AKv+E9S+a+M///UH6pLSRts3yR6qR8EFhl5Q6sSjsAm3Ag7btO8h9Dzwsb73+mmtjEdgbkxB+gV0MoLBbPNyEXSfBiFcqpPkTdjV/wqhB8tTkucaVA4Dlb2mIvZEo7AIVD7U8pj79mLGQ9lfWuj18v2p+JIiLdiJV2AUq7gIEmXti0MOycOka+XPeHMIungO7hTW2HzNpjhF7d+zaS2E3RNyEXaCCFEZogKfGT5Hdu3YaARLCLrB/O3R77eSzQ2HXP/6EXSf27Zre2tz1nsE6V6143b7Vmv/kM8/JlPFPe+8tvvP+9ikpok3YBf5+C0HYnfvX6UEJ64Xdk0gh2oTdD7bTV3RZ8fOWBf3jRxMQdi9+lz8Ki0QP1/zoqpgQds9/4xtklkQH+D5S2C0dKOySUidWhV0nhYmz/hqLdm68uYmxfMGQRFh6KfDxGMlWLCDShF0VDu0Cl12UhKsGNyFLrRmffOx3MmXWAuMSwC6QlbVFaaQKu07cyt+Om5Do79goc1j/KrACLg3xMZKFXSfODgdnudvLFm4bnMfU+4H6juBs0+cuNulALYPDTTQKu07slocaIMr+7QgkUDq/NXbBDNgtf8uCSBN23aw87fcJrhqwT2q3nj7fT/1WD/3TSJn9wtQC96IsRcZoFHadaPn2/u3D8pdpE4IS1v0dG+mR9Fso2oRdQgghhMQm/CVCSAmAxoY2RAAanWjIoIEIEEUajRs78DsHf3SJ1WvKi/Mzjb8/ndBg79knzQQoQQMIjRt7fqSLupEIBCuIUQj6BdEKE/ztJrW6xYiGEGUhKsIdAERIAPELPnQhblW69idmDgHMmY/9ytpNQCSBcnkgfYyZK/sOeiyFGjesa0RHp09d9bsL/7yKW1AvABEXPo51KiuL0kgBQjf856JOKxBjUd8b1q1l5k5fufaydQsseOxErhw+dtLkQRS2l3dpiLrRCETEQb9/0MyVrw54lhtc38gEjdKAmoq/gFNuQGy0fwfKUtSNRCAKwg0GAtyhjDHB3y6CfOE7ig5WiLoQESECA9wruA7At/raipXMHOt6D7Edtqef3eAI9FuoXoOGxgcyAgna0d9CGnQQ++A5qVOvvlm3w99ChBBCCCEFobBLSAmABvv67LXexqA9kjYak2jUYKihszGJRma0ulqIRgb27WXmjZO7mQlBp9SiF0AghCuAZh16mwBTHboPkImjh3iFLMyxvT3f7ieWeNBAdWuyN5l1CLgQxFG2ENgh7oINWz4xc7Bo6RoTwKtZk8ZWSuCgXiQf+CyGP124ugAQzhFwrmvnX5h1zN9a855XaNf7gfqM+4GODXRwaGBBZ6cHCQ4N3oURFsApCmoQKHwfFHXDA+GXFJ+H+w8087YtbjBTosM3LoRAWPRqINMev+7o498Vc6wjHfnYzs1NBnGnsN9CgYR1/S0USmcHIYQQQgihsEtIiYDGor0x6PQXh0YhGof2xuSosZNobRJGIMDaRVsAq9opTw31Wh4684HTGtRpnYh1ez5F3YKgnEcO7WcERgjgEMLtvnMhJmLYP6yjkY/pZO7ZAu4sDh09YcR3WkMHBuIrOiDgYxdlqb5zVZTFHC4XELBO74d2UijOTg+gaSQ4IEwNGT7CBENzEwWRD9c8xoIxLx+Tv8BpJDAoyzHjJhcQXDVdLTrd3ATgu2u3+nQeA+uB8ol/CvstVJiwDi6cP2dGEFSqzGeCEEIIISQY6GOXlDrR7mOXBEdZ+9iNF8rax248EQk+duOJSPaxS8rWx268EMk+dgl97BJCCCEkMuAvEUIIIYQQQgghhBBCCIkyKOwSQgghhBBCCCGEEEJIlEFhlxBCCCGEEEIIIYQQQqIMCruEEEIIIYQQQgghhBASZVDYJYQQQgghhBBCCCGEkCiDwi4hhBBCCCGEEEIIIYREGRR2CSGEEEIIIYQQQgghJMoo90Me1jIhpcKCrB2SsSLHWiOEFIeEH10ll//n/1prJJxUuOYqufRvljUhpHT4Ie+vXN4fiVw+fPVhufoq2skQQgghpOygsEsIIYQQQgghhBBCCCFRBruYCSGEEEIIIYQQQgghJMqgsEsIIYQQQgghhBBCCCFRBoVdQgghhBBCCCGEEEIIiTIo7BJCCCGEEEIIIYQQQkiUQWGXEEIIIYQQQgghhBBCogwKu4QQQgghhBBCCCGEEBJlUNglhBBCCCGEEEIIIYSQqELk/wPah1rq1P/gsAAAAABJRU5ErkJggg==;" vertex="1" parent="1">
          <mxGeometry x="40" y="-1060" width="756.36" height="320" as="geometry" />
        </mxCell>
        <mxCell id="QWoh_sHVwy2fCmXLBA7B-34" value="FAMILY HERITAGE APPLICATION" style="text;html=1;strokeColor=none;fillColor=none;align=center;verticalAlign=middle;whiteSpace=wrap;rounded=0;horizontal=1;fontSize=21;" vertex="1" parent="1">
          <mxGeometry x="200" y="-1140" width="410" height="20" as="geometry" />
        </mxCell>
        <mxCell id="QWoh_sHVwy2fCmXLBA7B-35" value="1. Family tree example" style="text;html=1;strokeColor=none;fillColor=none;align=left;verticalAlign=middle;whiteSpace=wrap;rounded=0;fontSize=21;" vertex="1" parent="1">
          <mxGeometry x="34" y="-1090" width="256" height="20" as="geometry" />
        </mxCell>
        <mxCell id="QWoh_sHVwy2fCmXLBA7B-38" value="" style="edgeStyle=orthogonalEdgeStyle;rounded=0;orthogonalLoop=1;jettySize=auto;html=1;fontSize=21;" edge="1" parent="1" source="QWoh_sHVwy2fCmXLBA7B-36" target="QWoh_sHVwy2fCmXLBA7B-37">
          <mxGeometry relative="1" as="geometry" />
        </mxCell>
        <mxCell id="QWoh_sHVwy2fCmXLBA7B-36" value="Start" style="ellipse;whiteSpace=wrap;html=1;fontSize=21;" vertex="1" parent="1">
          <mxGeometry x="330" y="-630" width="90" height="40" as="geometry" />
        </mxCell>
        <mxCell id="QWoh_sHVwy2fCmXLBA7B-40" value="" style="edgeStyle=orthogonalEdgeStyle;rounded=0;orthogonalLoop=1;jettySize=auto;html=1;fontSize=21;" edge="1" parent="1" source="QWoh_sHVwy2fCmXLBA7B-37" target="QWoh_sHVwy2fCmXLBA7B-39">
          <mxGeometry relative="1" as="geometry" />
        </mxCell>
        <mxCell id="QWoh_sHVwy2fCmXLBA7B-37" value="&lt;font style=&quot;font-size: 14px&quot;&gt;Ask the user to type a name&lt;/font&gt;" style="rounded=0;whiteSpace=wrap;html=1;fontSize=21;" vertex="1" parent="1">
          <mxGeometry x="317.5" y="-560" width="115" height="50" as="geometry" />
        </mxCell>
        <mxCell id="QWoh_sHVwy2fCmXLBA7B-44" value="No" style="edgeStyle=orthogonalEdgeStyle;rounded=0;orthogonalLoop=1;jettySize=auto;html=1;fontSize=14;" edge="1" parent="1" source="QWoh_sHVwy2fCmXLBA7B-39" target="QWoh_sHVwy2fCmXLBA7B-42">
          <mxGeometry relative="1" as="geometry" />
        </mxCell>
        <mxCell id="QWoh_sHVwy2fCmXLBA7B-45" value="Yes" style="edgeStyle=orthogonalEdgeStyle;rounded=0;orthogonalLoop=1;jettySize=auto;html=1;fontSize=14;" edge="1" parent="1" source="QWoh_sHVwy2fCmXLBA7B-39" target="QWoh_sHVwy2fCmXLBA7B-41">
          <mxGeometry relative="1" as="geometry" />
        </mxCell>
        <mxCell id="QWoh_sHVwy2fCmXLBA7B-39" value="&lt;font style=&quot;font-size: 14px&quot;&gt;Is the name in the database?&lt;/font&gt;" style="rhombus;whiteSpace=wrap;html=1;fontSize=21;" vertex="1" parent="1">
          <mxGeometry x="307.5" y="-460" width="135" height="130" as="geometry" />
        </mxCell>
        <mxCell id="QWoh_sHVwy2fCmXLBA7B-41" value="Print the menu and ask the user to choose an action" style="rounded=0;whiteSpace=wrap;html=1;fontSize=14;" vertex="1" parent="1">
          <mxGeometry x="530" y="-425" width="130" height="65" as="geometry" />
        </mxCell>
        <mxCell id="QWoh_sHVwy2fCmXLBA7B-46" value="" style="edgeStyle=orthogonalEdgeStyle;rounded=0;orthogonalLoop=1;jettySize=auto;html=1;fontSize=14;" edge="1" parent="1" source="QWoh_sHVwy2fCmXLBA7B-42" target="QWoh_sHVwy2fCmXLBA7B-43">
          <mxGeometry relative="1" as="geometry" />
        </mxCell>
        <mxCell id="QWoh_sHVwy2fCmXLBA7B-42" value="Tell the user this name does not exist" style="rounded=0;whiteSpace=wrap;html=1;fontSize=14;" vertex="1" parent="1">
          <mxGeometry x="97" y="-425" width="120" height="60" as="geometry" />
        </mxCell>
        <mxCell id="QWoh_sHVwy2fCmXLBA7B-48" value="Yes" style="edgeStyle=orthogonalEdgeStyle;rounded=0;orthogonalLoop=1;jettySize=auto;html=1;fontSize=14;" edge="1" parent="1" source="QWoh_sHVwy2fCmXLBA7B-43" target="QWoh_sHVwy2fCmXLBA7B-47">
          <mxGeometry relative="1" as="geometry" />
        </mxCell>
        <mxCell id="QWoh_sHVwy2fCmXLBA7B-50" value="No" style="edgeStyle=orthogonalEdgeStyle;rounded=0;orthogonalLoop=1;jettySize=auto;html=1;fontSize=14;entryX=0;entryY=0.5;entryDx=0;entryDy=0;" edge="1" parent="1" source="QWoh_sHVwy2fCmXLBA7B-43" target="QWoh_sHVwy2fCmXLBA7B-37">
          <mxGeometry x="-0.6489" relative="1" as="geometry">
            <mxPoint x="-13" y="-225" as="targetPoint" />
            <Array as="points">
              <mxPoint x="50" y="-225" />
              <mxPoint x="50" y="-535" />
            </Array>
            <mxPoint as="offset" />
          </mxGeometry>
        </mxCell>
        <mxCell id="QWoh_sHVwy2fCmXLBA7B-43" value="Does the user want to add the name to the database" style="rhombus;whiteSpace=wrap;html=1;fontSize=14;" vertex="1" parent="1">
          <mxGeometry x="82" y="-300" width="150" height="150" as="geometry" />
        </mxCell>
        <mxCell id="QWoh_sHVwy2fCmXLBA7B-47" value="Ask user to input all the necessary data&amp;nbsp;" style="whiteSpace=wrap;html=1;fontSize=14;" vertex="1" parent="1">
          <mxGeometry x="327" y="-255" width="120" height="60" as="geometry" />
        </mxCell>
        <mxCell id="QWoh_sHVwy2fCmXLBA7B-51" value="2. User flow chart" style="text;html=1;strokeColor=none;fillColor=none;align=left;verticalAlign=middle;whiteSpace=wrap;rounded=0;fontSize=21;" vertex="1" parent="1">
          <mxGeometry x="40" y="-690" width="206" height="20" as="geometry" />
        </mxCell>
        <mxCell id="QWoh_sHVwy2fCmXLBA7B-52" value="3. Application&#39;s structure" style="text;html=1;strokeColor=none;fillColor=none;align=left;verticalAlign=middle;whiteSpace=wrap;rounded=0;fontSize=21;" vertex="1" parent="1">
          <mxGeometry x="40" y="30" width="400" height="20" as="geometry" />
        </mxCell>
      </root>
    </mxGraphModel>
  </diagram>
</mxfile>
